<svg xmlns="http://www.w3.org/2000/svg" width="100%" height="100%" viewBox="0 0 1620 716" fill="none">
	<g stroke-width="1" stroke="rgba(245 245 245 / 1)" fill="none" stroke-linecap="round">
		<path d="M35 45H101L68 1H2L35 45Z" />
		<path d="M35 45H101L68 88H2L35 45Z" />
		<path d="M164.333 45H101L132.667 88H196L164.333 45Z" />
		<path d="M35 135H101L68 179H2L35 135Z" />
		<path d="M164.333 135H101L132.667 88H196L164.333 135Z" />
		<path d="M35 223H101L68 179H2L35 223Z" />
		<path d="M164.333 223H101L132.667 179H196L164.333 223Z" />
		<path d="M164.333 223H101L132.667 268H196L164.333 223Z" />
		<path d="M35 312H101L68 268H2L35 312Z" />
		<path d="M35 312H101L68 361H2L35 312Z" />
		<path d="M164.333 312H101L132.667 361H196L164.333 312Z" />
		<path d="M35 404H101L68 448H2L35 404Z" />
		<path d="M164.333 404H101L132.667 361H196L164.333 404Z" />
		<path d="M35 493H101L68 448H2L35 493Z" />
		<path d="M164.333 493H101L132.667 448H196L164.333 493Z" />
		<path d="M164.333 493H101L132.667 537H196L164.333 493Z" />
		<path d="M35 581H101L68 537H2L35 581Z" />
		<path d="M35 581H101L68 628H2L35 581Z" />
		<path d="M164.333 581H101L132.667 628H196L164.333 581Z" />
		<path d="M35 671H101L68 715H2L35 671Z" />
		<path d="M164.333 671H101L132.667 628H196L164.333 671Z" />
		<path d="M231.667 45H303L267.333 1H196L231.667 45Z" />
		<path d="M231.667 45H303L267.333 88H196L231.667 45Z" />
		<path d="M371.667 45H303L337.333 88H406L371.667 45Z" />
		<path d="M231.667 135H303L267.333 179H196L231.667 135Z" />
		<path d="M371.667 135H303L337.333 88H406L371.667 135Z" />
		<path d="M231.667 223H303L267.333 179H196L231.667 223Z" />
		<path d="M371.667 223H303L337.333 179H406L371.667 223Z" />
		<path d="M371.667 223H303L337.333 268H406L371.667 223Z" />
		<path d="M231.667 312H303L267.333 268H196L231.667 312Z" />
		<path d="M231.667 312H303L267.333 361H196L231.667 312Z" />
		<path d="M371.667 312H303L337.333 361H406L371.667 312Z" />
		<path d="M231.667 404H303L267.333 448H196L231.667 404Z" />
		<path d="M371.667 404H303L337.333 361H406L371.667 404Z" />
		<path d="M231.667 493H303L267.333 448H196L231.667 493Z" />
		<path d="M371.667 493H303L337.333 448H406L371.667 493Z" />
		<path d="M371.667 493H303L337.333 537H406L371.667 493Z" />
		<path d="M231.667 581H303L267.333 537H196L231.667 581Z" />
		<path d="M231.667 581H303L267.333 628H196L231.667 581Z" />
		<path d="M371.667 581H303L337.333 628H406L371.667 581Z" />
		<path d="M231.667 671H303L267.333 715H196L231.667 671Z" />
		<path d="M371.667 671H303L337.333 628H406L371.667 671Z" />
		<path d="M439 45H505L472 1H406L439 45Z" />
		<path d="M439 45H505L472 88H406L439 45Z" />
		<path d="M568.333 45H505L536.667 88H600L568.333 45Z" />
		<path d="M439 135H505L472 179H406L439 135Z" />
		<path d="M568.333 135H505L536.667 88H600L568.333 135Z" />
		<path d="M439 223H505L472 179H406L439 223Z" />
		<path d="M568.333 223H505L536.667 179H600L568.333 223Z" />
		<path d="M568.333 223H505L536.667 268H600L568.333 223Z" />
		<path d="M439 312H505L472 268H406L439 312Z" />
		<path d="M439 312H505L472 361H406L439 312Z" />
		<path d="M568.333 312H505L536.667 361H600L568.333 312Z" />
		<path d="M439 404H505L472 448H406L439 404Z" />
		<path d="M568.333 404H505L536.667 361H600L568.333 404Z" />
		<path d="M439 493H505L472 448H406L439 493Z" />
		<path d="M568.333 493H505L536.667 448H600L568.333 493Z" />
		<path d="M568.333 493H505L536.667 537H600L568.333 493Z" />
		<path d="M439 581H505L472 537H406L439 581Z" />
		<path d="M439 581H505L472 628H406L439 581Z" />
		<path d="M568.333 581H505L536.667 628H600L568.333 581Z" />
		<path d="M439 671H505L472 715H406L439 671Z" />
		<path d="M568.333 671H505L536.667 628H600L568.333 671Z" />
		<path d="M635.667 45H707L671.333 1H600L635.667 45Z" />
		<path d="M635.667 45H707L671.333 88H600L635.667 45Z" />
		<path d="M775.667 45H707L741.333 88H810L775.667 45Z" />
		<path d="M635.667 135H707L671.333 179H600L635.667 135Z" />
		<path d="M775.667 135H707L741.333 88H810L775.667 135Z" />
		<path d="M635.667 223H707L671.333 179H600L635.667 223Z" />
		<path d="M775.667 223H707L741.333 179H810L775.667 223Z" />
		<path d="M775.667 223H707L741.333 268H810L775.667 223Z" />
		<path d="M635.667 312H707L671.333 268H600L635.667 312Z" />
		<path d="M635.667 312H707L671.333 361H600L635.667 312Z" />
		<path d="M775.667 312H707L741.333 361H810L775.667 312Z" />
		<path d="M635.667 404H707L671.333 448H600L635.667 404Z" />
		<path d="M775.667 404H707L741.333 361H810L775.667 404Z" />
		<path d="M635.667 493H707L671.333 448H600L635.667 493Z" />
		<path d="M775.667 493H707L741.333 448H810L775.667 493Z" />
		<path d="M775.667 493H707L741.333 537H810L775.667 493Z" />
		<path d="M635.667 581H707L671.333 537H600L635.667 581Z" />
		<path d="M635.667 581H707L671.333 628H600L635.667 581Z" />
		<path d="M775.667 581H707L741.333 628H810L775.667 581Z" />
		<path d="M635.667 671H707L671.333 715H600L635.667 671Z" />
		<path d="M775.667 671H707L741.333 628H810L775.667 671Z" />
		<path d="M843 45H909L876 1H810L843 45Z" />
		<path d="M843 45H909L876 88H810L843 45Z" />
		<path d="M972.333 45H909L940.667 88H1004L972.333 45Z" />
		<path d="M843 135H909L876 179H810L843 135Z" />
		<path d="M972.333 135H909L940.667 88H1004L972.333 135Z" />
		<path d="M843 223H909L876 179H810L843 223Z" />
		<path d="M972.333 223H909L940.667 179H1004L972.333 223Z" />
		<path d="M972.333 223H909L940.667 268H1004L972.333 223Z" />
		<path d="M843 312H909L876 268H810L843 312Z" />
		<path d="M843 312H909L876 361H810L843 312Z" />
		<path d="M972.333 312H909L940.667 361H1004L972.333 312Z" />
		<path d="M843 404H909L876 448H810L843 404Z" />
		<path d="M972.333 404H909L940.667 361H1004L972.333 404Z" />
		<path d="M843 493H909L876 448H810L843 493Z" />
		<path d="M972.333 493H909L940.667 448H1004L972.333 493Z" />
		<path d="M972.333 493H909L940.667 537H1004L972.333 493Z" />
		<path d="M843 581H909L876 537H810L843 581Z" />
		<path d="M843 581H909L876 628H810L843 581Z" />
		<path d="M972.333 581H909L940.667 628H1004L972.333 581Z" />
		<path d="M843 671H909L876 715H810L843 671Z" />
		<path d="M972.333 671H909L940.667 628H1004L972.333 671Z" />
		<path d="M1039.67 45H1111L1075.33 1H1004L1039.67 45Z" />
		<path d="M1039.67 45H1111L1075.33 88H1004L1039.67 45Z" />
		<path d="M1179.67 45H1111L1145.33 88H1214L1179.67 45Z" />
		<path d="M1039.67 135H1111L1075.33 179H1004L1039.67 135Z" />
		<path d="M1179.67 135H1111L1145.33 88H1214L1179.67 135Z" />
		<path d="M1039.67 223H1111L1075.33 179H1004L1039.67 223Z" />
		<path d="M1179.67 223H1111L1145.33 179H1214L1179.67 223Z" />
		<path d="M1179.67 223H1111L1145.33 268H1214L1179.67 223Z" />
		<path d="M1039.67 312H1111L1075.33 268H1004L1039.67 312Z" />
		<path d="M1039.67 312H1111L1075.33 361H1004L1039.67 312Z" />
		<path d="M1179.67 312H1111L1145.33 361H1214L1179.67 312Z" />
		<path d="M1039.67 404H1111L1075.33 448H1004L1039.67 404Z" />
		<path d="M1179.67 404H1111L1145.33 361H1214L1179.67 404Z" />
		<path d="M1039.67 493H1111L1075.33 448H1004L1039.67 493Z" />
		<path d="M1179.67 493H1111L1145.33 448H1214L1179.67 493Z" />
		<path d="M1179.67 493H1111L1145.33 537H1214L1179.67 493Z" />
		<path d="M1039.67 581H1111L1075.33 537H1004L1039.67 581Z" />
		<path d="M1039.67 581H1111L1075.33 628H1004L1039.67 581Z" />
		<path d="M1179.67 581H1111L1145.33 628H1214L1179.67 581Z" />
		<path d="M1039.67 671H1111L1075.33 715H1004L1039.67 671Z" />
		<path d="M1179.67 671H1111L1145.33 628H1214L1179.67 671Z" />
		<path d="M1247 45H1313L1280 1H1214L1247 45Z" />
		<path d="M1247 45H1313L1280 88H1214L1247 45Z" />
		<path d="M1376.33 45H1313L1344.67 88H1408L1376.33 45Z" />
		<path d="M1247 135H1313L1280 179H1214L1247 135Z" />
		<path d="M1376.33 135H1313L1344.67 88H1408L1376.33 135Z" />
		<path d="M1247 223H1313L1280 179H1214L1247 223Z" />
		<path d="M1376.33 223H1313L1344.67 179H1408L1376.33 223Z" />
		<path d="M1376.33 223H1313L1344.67 268H1408L1376.33 223Z" />
		<path d="M1247 312H1313L1280 268H1214L1247 312Z" />
		<path d="M1247 312H1313L1280 361H1214L1247 312Z" />
		<path d="M1376.33 312H1313L1344.67 361H1408L1376.33 312Z" />
		<path d="M1247 404H1313L1280 448H1214L1247 404Z" />
		<path d="M1376.33 404H1313L1344.67 361H1408L1376.33 404Z" />
		<path d="M1247 493H1313L1280 448H1214L1247 493Z" />
		<path d="M1376.33 493H1313L1344.67 448H1408L1376.33 493Z" />
		<path d="M1376.33 493H1313L1344.67 537H1408L1376.33 493Z" />
		<path d="M1247 581H1313L1280 537H1214L1247 581Z" />
		<path d="M1247 581H1313L1280 628H1214L1247 581Z" />
		<path d="M1376.33 581H1313L1344.67 628H1408L1376.33 581Z" />
		<path d="M1247 671H1313L1280 715H1214L1247 671Z" />
		<path d="M1376.33 671H1313L1344.67 628H1408L1376.33 671Z" />
		<path d="M1443.67 45H1515L1479.33 1H1408L1443.67 45Z" />
		<path d="M1443.67 45H1515L1479.33 88H1408L1443.67 45Z" />
		<path d="M1583.67 45H1515L1549.33 88H1618L1583.67 45Z" />
		<path d="M1443.67 135H1515L1479.33 179H1408L1443.67 135Z" />
		<path d="M1583.67 135H1515L1549.33 88H1618L1583.67 135Z" />
		<path d="M1443.67 223H1515L1479.33 179H1408L1443.67 223Z" />
		<path d="M1583.67 223H1515L1549.33 179H1618L1583.67 223Z" />
		<path d="M1583.67 223H1515L1549.33 268H1618L1583.67 223Z" />
		<path d="M1443.67 312H1515L1479.33 268H1408L1443.67 312Z" />
		<path d="M1443.67 312H1515L1479.33 361H1408L1443.67 312Z" />
		<path d="M1583.67 312H1515L1549.33 361H1618L1583.67 312Z" />
		<path d="M1443.67 404H1515L1479.33 448H1408L1443.67 404Z" />
		<path d="M1583.67 404H1515L1549.33 361H1618L1583.67 404Z" />
		<path d="M1443.67 493H1515L1479.33 448H1408L1443.67 493Z" />
		<path d="M1583.67 493H1515L1549.33 448H1618L1583.67 493Z" />
		<path d="M1583.67 493H1515L1549.33 537H1618L1583.67 493Z" />
		<path d="M1443.67 581H1515L1479.33 537H1408L1443.67 581Z" />
		<path d="M1443.67 581H1515L1479.33 628H1408L1443.67 581Z" />
		<path d="M1583.67 581H1515L1549.33 628H1618L1583.67 581Z" />
		<path d="M1443.67 671H1515L1479.33 715H1408L1443.67 671Z" />
		<path d="M1583.67 671H1515L1549.33 628H1618L1583.67 671Z" />
	</g>
</svg>