<svg width="1920" height="1081" viewBox="0 0 1920 1081" fill="none" xmlns="http://www.w3.org/2000/svg">
<g clip-path="url(#clip0_247_272)">
<path opacity="0.5" d="M1644.82 445.226L1738.01 538.425C1744.26 544.673 1742.19 550.394 1733.4 551.202L1602.15 563.262C1593.35 564.071 1581.15 559.661 1574.9 553.413L1481.7 460.214C1475.45 453.966 1477.52 448.245 1486.32 447.436L1617.57 435.376C1626.37 434.568 1638.57 438.977 1644.82 445.226Z" fill="#208AF3"/>
<path opacity="0.8" d="M1964.45 502.89L2057.65 596.089C2063.9 602.337 2061.83 608.058 2053.03 608.866L1921.78 620.926C1912.98 621.735 1900.78 617.325 1894.53 611.077L1801.33 517.878C1795.08 511.63 1797.15 505.909 1805.95 505.1L1937.2 493.04C1946 492.232 1958.2 496.641 1964.45 502.89Z" fill="#208AF3"/>
<path opacity="0.8" d="M714.378 837.843L807.577 931.042C813.825 937.29 811.757 943.011 802.958 943.819L671.708 955.88C662.908 956.688 650.709 952.278 644.461 946.03L551.262 852.831C545.014 846.583 547.082 840.862 555.881 840.053L687.132 827.993C695.931 827.185 708.13 831.595 714.378 837.843Z" fill="#208AF3"/>
<path opacity="0.4" d="M89.339 1005.33L182.538 1098.53C188.786 1104.78 186.718 1110.5 177.919 1111.31L46.6686 1123.37C37.8691 1124.18 25.6704 1119.77 19.422 1113.52L-73.7768 1020.32C-80.0252 1014.07 -77.9571 1008.35 -69.1577 1007.54L62.0924 995.482C70.8919 994.673 83.0906 999.083 89.339 1005.33Z" fill="#208AF3"/>
<path d="M1780.53 982.116L1873.73 1075.32C1879.97 1081.56 1877.91 1087.28 1869.11 1088.09L1737.86 1100.15C1729.06 1100.96 1716.86 1096.55 1710.61 1090.3L1617.41 997.105C1611.16 990.856 1613.23 985.135 1622.03 984.327L1753.28 972.267C1762.08 971.458 1774.28 975.868 1780.53 982.116Z" fill="#208AF3"/>
<path opacity="0.3" d="M872.753 508.788L965.952 601.987C972.2 608.235 970.132 613.956 961.333 614.765L830.083 626.825C821.283 627.633 809.084 623.224 802.836 616.975L709.637 523.776C703.389 517.528 705.457 511.807 714.256 510.999L845.507 498.939C854.306 498.13 866.505 502.54 872.753 508.788Z" fill="#208AF3"/>
<path opacity="0.5" d="M247.706 676.265L340.905 769.464C347.153 775.712 345.085 781.433 336.286 782.241L205.036 794.301C196.236 795.11 184.038 790.7 177.789 784.452L84.5904 691.253C78.342 685.005 80.41 679.284 89.2095 678.475L220.46 666.415C229.259 665.607 241.458 670.016 247.706 676.265Z" fill="#208AF3"/>
<path d="M861.409 941.761L954.608 1034.96C960.857 1041.21 958.788 1046.93 949.989 1047.74L818.739 1059.8C809.939 1060.61 797.741 1056.2 791.492 1049.95L698.293 956.749C692.045 950.501 694.113 944.78 702.913 943.971L834.163 931.911C842.962 931.103 855.161 935.513 861.409 941.761Z" fill="#208AF3"/>
<path opacity="0.1" d="M1335.05 375.866L1555.56 596.378C1561.81 602.626 1559.74 608.347 1550.94 609.155L1419.69 621.216C1410.89 622.024 1398.69 617.614 1392.45 611.366L1171.93 390.855C1165.69 384.606 1167.75 378.885 1176.55 378.077L1307.8 366.017C1316.6 365.208 1328.8 369.618 1335.05 375.866Z" fill="#208AF3"/>
<path opacity="0.4" d="M89.2844 735.054L309.796 955.565C316.044 961.814 313.976 967.534 305.176 968.343L-114.558 1006.91C-123.358 1007.72 -135.557 1003.31 -141.805 997.061L-362.316 776.55C-368.565 770.302 -366.497 764.581 -357.697 763.772L62.0378 725.204C70.8373 724.396 83.036 728.806 89.2844 735.054Z" fill="#208AF3"/>
<path opacity="0.3" d="M1521.91 612.416L1742.42 832.928C1748.67 839.177 1746.6 844.898 1737.8 845.706L1606.55 857.766C1597.75 858.575 1585.55 854.165 1579.3 847.917L1358.79 627.405C1352.54 621.156 1354.61 615.435 1363.41 614.627L1494.66 602.567C1503.46 601.758 1515.66 606.168 1521.91 612.416Z" fill="#208AF3"/>
<path opacity="0.3" d="M896.838 779.897L1117.35 1000.41C1123.6 1006.66 1121.53 1012.38 1112.73 1013.19L981.481 1025.25C972.682 1026.06 960.483 1021.65 954.234 1015.4L733.722 794.885C727.474 788.637 729.542 782.916 738.342 782.107L869.592 770.047C878.391 769.239 890.59 773.649 896.838 779.897Z" fill="#208AF3"/>
<path opacity="0.5" d="M271.807 947.37L492.319 1167.88C498.567 1174.13 496.499 1179.85 487.7 1180.66L356.45 1192.72C347.65 1193.53 335.452 1189.12 329.203 1182.87L108.691 962.358C102.443 956.109 104.511 950.389 113.31 949.58L244.56 937.52C253.36 936.711 265.559 941.121 271.807 947.37Z" fill="#208AF3"/>
<path opacity="0.9" d="M1962.98 924.163L2183.49 1144.67C2189.74 1150.92 2187.67 1156.64 2178.87 1157.45L2047.62 1169.51C2038.82 1170.32 2026.62 1165.91 2020.38 1159.66L1799.86 939.151C1793.62 932.903 1795.68 927.182 1804.48 926.374L1935.73 914.314C1944.53 913.505 1956.73 917.915 1962.98 924.163Z" fill="#208AF3"/>
<path opacity="0.8" d="M1301.26 547.015L1394.46 640.214C1400.71 646.462 1398.64 652.183 1389.84 652.991L1148.05 675.209C1139.25 676.017 1127.05 671.607 1120.8 665.359L1027.6 572.16C1021.36 565.912 1023.42 560.191 1032.22 559.383L1274.01 537.165C1282.81 536.357 1295.01 540.766 1301.26 547.015Z" fill="#208AF3"/>
<path opacity="0.8" d="M676.23 714.495L769.428 807.694C775.677 813.942 773.609 819.663 764.809 820.472L523.018 842.689C514.218 843.498 502.02 839.088 495.771 832.84L402.572 739.641C396.324 733.392 398.392 727.672 407.192 726.863L648.983 704.646C657.783 703.837 669.981 708.247 676.23 714.495Z" fill="#208AF3"/>
<path opacity="0.9" d="M1168.46 725.902L1261.66 819.1C1267.91 825.349 1265.84 831.07 1257.04 831.878L1015.25 854.095C1006.45 854.904 994.254 850.494 988.006 844.246L894.807 751.047C888.558 744.799 890.627 739.078 899.426 738.269L1141.22 716.052C1150.02 715.243 1162.22 719.653 1168.46 725.902Z" fill="#208AF3"/>
<path opacity="0.4" d="M543.441 893.374L636.639 986.573C642.888 992.821 640.82 998.542 632.02 999.351L390.229 1021.57C381.429 1022.38 369.231 1017.97 362.982 1011.72L269.783 918.52C263.535 912.271 265.603 906.55 274.403 905.742L516.194 883.525C524.993 882.716 537.192 887.126 543.441 893.374Z" fill="#208AF3"/>
<path opacity="0.5" d="M1609.57 1037.66L1702.77 1130.86C1709.02 1137.11 1706.95 1142.83 1698.15 1143.64L1456.36 1165.85C1447.56 1166.66 1435.36 1162.25 1429.12 1156L1335.92 1062.8C1329.67 1056.56 1331.74 1050.84 1340.54 1050.03L1582.33 1027.81C1591.13 1027 1603.33 1031.41 1609.57 1037.66Z" fill="#208AF3"/>
<path opacity="0.2" d="M1978.47 84.8742L2071.67 178.073C2077.92 184.321 2075.85 190.042 2067.05 190.851L1757.86 219.262C1749.06 220.07 1736.86 215.66 1730.61 209.412L1637.41 116.213C1631.16 109.965 1633.23 104.244 1642.03 103.435L1951.23 75.0245C1960.02 74.2159 1972.22 78.6258 1978.47 84.8742Z" fill="#208AF3"/>
<path opacity="0.9" d="M103.347 587.3L196.546 680.499C202.794 686.747 200.726 692.468 191.926 693.277L-117.268 721.687C-126.068 722.496 -138.266 718.086 -144.515 711.838L-237.713 618.639C-243.962 612.39 -241.894 606.67 -233.094 605.861L76.1003 577.45C84.8997 576.642 97.0985 581.052 103.347 587.3Z" fill="#208AF3"/>
<path opacity="0.8" d="M1808.75 846.898L1901.95 940.096C1908.2 946.345 1906.13 952.066 1897.33 952.874L1588.14 981.285C1579.34 982.094 1567.14 977.684 1560.89 971.435L1467.69 878.237C1461.44 871.988 1463.51 866.267 1472.31 865.459L1781.51 837.048C1790.31 836.239 1802.5 840.649 1808.75 846.898Z" fill="#208AF3"/>
<path opacity="0.8" d="M1183.72 1014.37L1276.92 1107.57C1283.17 1113.81 1281.1 1119.53 1272.3 1120.34L963.108 1148.75C954.308 1149.56 942.11 1145.15 935.861 1138.9L842.663 1045.71C836.414 1039.46 838.482 1033.74 847.282 1032.93L1156.48 1004.52C1165.27 1003.71 1177.47 1008.12 1183.72 1014.37Z" fill="#208AF3"/>
<path opacity="0.3" d="M1642.1 160.015L1862.61 380.526C1868.86 386.775 1866.79 392.495 1857.99 393.304L1616.2 415.521C1607.4 416.33 1595.2 411.92 1588.95 405.672L1368.44 185.16C1362.19 178.912 1364.26 173.191 1373.06 172.383L1614.85 150.165C1623.65 149.357 1635.85 153.766 1642.1 160.015Z" fill="#208AF3"/>
<path opacity="0.9" d="M1950.42 650.636L2170.93 871.147C2177.18 877.396 2175.11 883.116 2166.31 883.925L1924.52 906.142C1915.72 906.951 1903.52 902.541 1897.27 896.293L1676.76 675.781C1670.51 669.533 1672.58 663.812 1681.38 663.004L1923.17 640.786C1931.97 639.978 1944.17 644.388 1950.42 650.636Z" fill="#208AF3"/>
<path opacity="0.5" d="M1325.36 818.116L1545.87 1038.63C1552.12 1044.88 1550.05 1050.6 1541.25 1051.41L1299.46 1073.62C1290.66 1074.43 1278.46 1070.02 1272.22 1063.77L1051.71 843.262C1045.46 837.013 1047.52 831.293 1056.32 830.484L1298.12 808.267C1306.92 807.458 1319.11 811.868 1325.36 818.116Z" fill="#208AF3"/>
<path opacity="0.4" d="M700.331 985.593L920.843 1206.1C927.091 1212.35 925.023 1218.07 916.223 1218.88L674.432 1241.1C665.632 1241.91 653.434 1237.5 647.185 1231.25L426.674 1010.74C420.426 1004.49 422.494 998.769 431.293 997.961L673.085 975.743C681.884 974.935 694.083 979.345 700.331 985.593Z" fill="#208AF3"/>
<path d="M1105.56 564.949L1132.57 591.961C1134.53 593.913 1133.88 595.701 1131.13 595.954L1059.45 602.54C1056.7 602.793 1052.89 601.415 1050.94 599.462L1023.92 572.45C1021.97 570.498 1022.62 568.71 1025.37 568.457L1097.05 561.871C1099.8 561.618 1103.61 562.996 1105.56 564.949Z" fill="#208AF3" stroke="white" stroke-width="4"/>
<path d="M1074.92 578.199C1077.99 577.918 1082.23 579.453 1084.41 581.63C1086.59 583.806 1085.87 585.799 1082.8 586.08L1081.57 586.193C1078.51 586.475 1074.26 584.939 1072.08 582.762C1069.91 580.586 1070.63 578.594 1073.69 578.312L1074.92 578.199Z" fill="white"/>
<path d="M1694.11 117.729L1770.32 193.936C1776.17 199.794 1774.23 205.157 1765.98 205.915L1562.51 224.613C1554.26 225.371 1542.82 221.236 1536.96 215.378L1460.76 139.171C1454.9 133.313 1456.84 127.95 1465.09 127.192L1668.56 108.495C1676.81 107.737 1688.25 111.871 1694.11 117.729Z" fill="#208AF3" stroke="white" stroke-width="4"/>
<path d="M1606.5 162.559C1609.56 162.277 1613.81 163.813 1615.99 165.989C1618.17 168.165 1617.45 170.158 1614.38 170.44L1613.15 170.552C1610.09 170.834 1605.84 169.298 1603.66 167.122C1601.49 164.945 1602.21 162.953 1605.27 162.671L1606.5 162.559Z" fill="white"/>
<path d="M1746.13 586.68L1792.51 633.058C1797.19 637.744 1795.64 642.035 1789.04 642.641L1661.2 654.388C1654.6 654.994 1645.45 651.687 1640.77 647.001L1594.39 600.623C1589.7 595.936 1591.25 591.646 1597.85 591.039L1725.69 579.292C1732.29 578.686 1741.44 581.993 1746.13 586.68Z" fill="#208AF3" stroke="white" stroke-width="4"/>
<path d="M1684.41 612.848C1687.47 612.566 1691.72 614.102 1693.9 616.278C1696.07 618.455 1695.35 620.447 1692.29 620.729L1691.06 620.841C1687.99 621.123 1683.75 619.587 1681.57 617.411C1679.39 615.235 1680.11 613.242 1683.18 612.96L1684.41 612.848Z" fill="white"/>
<path d="M245.083 637.654L269.581 662.152C273.096 665.666 271.933 668.884 266.983 669.339L195.741 675.885C190.791 676.34 183.929 673.86 180.415 670.345L155.917 645.847C152.402 642.332 153.565 639.114 158.515 638.66L229.757 632.113C234.707 631.658 241.569 634.139 245.083 637.654Z" fill="#208AF3" stroke="white" stroke-width="4"/>
<path d="M203.71 649.992C206.775 649.711 211.024 651.246 213.2 653.423C215.376 655.599 214.656 657.592 211.591 657.873L210.364 657.986C207.299 658.268 203.05 656.732 200.874 654.555C198.698 652.379 199.418 650.387 202.483 650.105L203.71 649.992Z" fill="white"/>
<path d="M870.122 903.138L894.62 927.636C898.135 931.151 896.972 934.369 892.022 934.824L820.78 941.37C815.83 941.825 808.968 939.344 805.454 935.829L780.956 911.331C777.441 907.817 778.604 904.599 783.554 904.144L854.796 897.598C859.746 897.143 866.608 899.623 870.122 903.138Z" fill="#208AF3" stroke="white" stroke-width="4"/>
<path d="M828.765 915.488C831.83 915.207 836.078 916.743 838.255 918.919C840.431 921.095 839.711 923.088 836.646 923.369L835.419 923.482C832.354 923.764 828.105 922.228 825.929 920.051C823.752 917.875 824.473 915.883 827.538 915.601L828.765 915.488Z" fill="white"/>
<path d="M870.122 287.857L894.62 312.355C898.135 315.87 896.972 319.087 892.022 319.542L820.78 326.089C815.83 326.543 808.968 324.063 805.454 320.548L780.956 296.05C777.441 292.535 778.604 289.317 783.554 288.863L854.796 282.316C859.746 281.862 866.608 284.342 870.122 287.857Z" fill="#208AF3" stroke="white" stroke-width="4"/>
<path d="M828.749 300.203C831.814 299.921 836.063 301.457 838.239 303.634C840.415 305.81 839.695 307.803 836.63 308.084L835.403 308.197C832.338 308.479 828.089 306.943 825.913 304.766C823.737 302.59 824.457 300.597 827.522 300.316L828.749 300.203Z" fill="white"/>
</g>
<defs>
<clipPath id="clip0_247_272">
<rect width="1920" height="1081" fill="white" transform="matrix(-1 0 0 1 1920 0)"/>
</clipPath>
</defs>
</svg>
