<svg width="1920" height="1081" viewBox="0 0 1920 1081" fill="none" xmlns="http://www.w3.org/2000/svg">
<g clip-path="url(#clip0_247_272)">
<path opacity="0.5" d="M1601.02 563.122L1477.17 518.043C1468.86 515.02 1468.32 508.962 1475.95 504.51L1589.81 438.111C1597.44 433.659 1610.36 432.501 1618.67 435.523L1742.52 480.602C1750.82 483.625 1751.37 489.683 1743.73 494.135L1629.88 560.534C1622.25 564.985 1609.33 566.144 1601.02 563.122Z" fill="#208AF3"/>
<path opacity="0.8" d="M1920.66 620.786L1796.8 575.707C1788.5 572.684 1787.95 566.626 1795.59 562.174L1909.44 495.775C1917.08 491.323 1930 490.165 1938.3 493.187L2062.15 538.266C2070.46 541.289 2071 547.347 2063.37 551.799L1949.51 618.198C1941.88 622.65 1928.96 623.808 1920.66 620.786Z" fill="#208AF3"/>
<path opacity="0.8" d="M670.585 955.739L546.73 910.66C538.427 907.638 537.883 901.579 545.517 897.127L659.373 830.728C667.006 826.277 679.926 825.118 688.229 828.14L812.084 873.219C820.387 876.242 820.931 882.301 813.297 886.752L699.441 953.151C691.808 957.603 678.888 958.761 670.585 955.739Z" fill="#208AF3"/>
<path opacity="0.4" d="M45.5457 1123.22L-78.3087 1078.14C-86.6123 1075.12 -87.1557 1069.06 -79.5224 1064.61L34.3338 998.213C41.9671 993.761 54.8866 992.602 63.1902 995.625L187.045 1040.7C195.348 1043.73 195.892 1049.78 188.258 1054.24L74.4021 1120.64C66.7688 1125.09 53.8493 1126.25 45.5457 1123.22Z" fill="#208AF3"/>
<path d="M1736.74 1100.01L1612.89 1054.93C1604.58 1051.91 1604.04 1045.85 1611.67 1041.4L1725.53 975.002C1733.16 970.55 1746.08 969.391 1754.39 972.414L1878.24 1017.49C1886.54 1020.52 1887.09 1026.57 1879.45 1031.03L1765.6 1097.42C1757.96 1101.88 1745.04 1103.03 1736.74 1100.01Z" fill="#208AF3"/>
<path opacity="0.3" d="M828.968 626.684L705.113 581.605C696.81 578.583 696.266 572.524 703.899 568.072L817.756 501.674C825.389 497.222 838.308 496.063 846.612 499.086L970.466 544.165C978.77 547.187 979.313 553.246 971.68 557.697L857.824 624.096C850.191 628.548 837.271 629.707 828.968 626.684Z" fill="#208AF3"/>
<path opacity="0.5" d="M203.921 794.161L80.0663 749.082C71.7627 746.059 71.2193 740.001 78.8526 735.549L192.709 669.15C200.342 664.698 213.262 663.54 221.565 666.562L345.42 711.641C353.723 714.664 354.267 720.722 346.633 725.174L232.777 791.573C225.144 796.025 212.224 797.183 203.921 794.161Z" fill="#208AF3"/>
<path d="M817.624 1059.66L693.769 1014.58C685.466 1011.56 684.922 1005.5 692.556 1001.05L806.412 934.646C814.045 930.195 826.965 929.036 835.268 932.058L959.123 977.137C967.426 980.16 967.97 986.219 960.336 990.67L846.48 1057.07C838.847 1061.52 825.927 1062.68 817.624 1059.66Z" fill="#208AF3"/>
<path opacity="0.1" d="M1439.52 588.209L1146.48 481.55C1138.18 478.528 1137.63 472.469 1145.27 468.018L1259.12 401.619C1266.76 397.167 1279.68 396.009 1287.98 399.031L1581.02 505.69C1589.33 508.712 1589.87 514.771 1582.24 519.223L1468.38 585.621C1460.75 590.073 1447.83 591.232 1439.52 588.209Z" fill="#208AF3"/>
<path opacity="0.4" d="M-75.6092 1033.62L-368.652 926.961C-376.956 923.938 -377.499 917.88 -369.866 913.428L-5.75672 701.086C1.8766 696.634 14.7961 695.475 23.0997 698.498L316.143 805.157C324.447 808.179 324.99 814.238 317.357 818.689L-46.7527 1031.03C-54.3861 1035.48 -67.3056 1036.64 -75.6092 1033.62Z" fill="#208AF3"/>
<path opacity="0.3" d="M1626.38 824.761L1333.33 718.101C1325.03 715.079 1324.48 709.02 1332.12 704.569L1445.97 638.17C1453.61 633.718 1466.53 632.559 1474.83 635.582L1767.88 742.241C1776.18 745.263 1776.72 751.322 1769.09 755.774L1655.23 822.173C1647.6 826.624 1634.68 827.783 1626.38 824.761Z" fill="#208AF3"/>
<path opacity="0.3" d="M1001.31 992.241L708.262 885.582C699.958 882.559 699.415 876.501 707.048 872.049L820.904 805.65C828.537 801.198 841.457 800.04 849.761 803.062L1142.8 909.721C1151.11 912.744 1151.65 918.802 1144.02 923.254L1030.16 989.653C1022.53 994.105 1009.61 995.263 1001.31 992.241Z" fill="#208AF3"/>
<path opacity="0.5" d="M376.275 1159.71L83.2304 1053.05C74.9267 1050.03 74.3834 1043.97 82.0167 1039.52L195.873 973.123C203.506 968.671 216.426 967.512 224.729 970.535L517.773 1077.19C526.077 1080.22 526.621 1086.28 518.987 1090.73L405.131 1157.13C397.498 1161.58 384.578 1162.74 376.275 1159.71Z" fill="#208AF3"/>
<path opacity="0.9" d="M2067.45 1136.51L1774.41 1029.85C1766.11 1026.83 1765.56 1020.77 1773.2 1016.31L1887.05 949.916C1894.69 945.464 1907.61 944.305 1915.91 947.328L2208.95 1053.99C2217.26 1057.01 2217.8 1063.07 2210.17 1067.52L2096.31 1133.92C2088.68 1138.37 2075.76 1139.53 2067.45 1136.51Z" fill="#208AF3"/>
<path opacity="0.8" d="M1154.26 697.95L1030.41 652.871C1022.11 649.848 1021.56 643.79 1029.2 639.338L1238.94 517.017C1246.58 512.565 1259.5 511.406 1267.8 514.429L1391.66 559.508C1399.96 562.53 1400.5 568.589 1392.87 573.041L1183.12 695.362C1175.49 699.814 1162.57 700.972 1154.26 697.95Z" fill="#208AF3"/>
<path opacity="0.8" d="M529.233 865.431L405.379 820.351C397.075 817.329 396.532 811.27 404.165 806.819L613.913 684.497C621.546 680.046 634.466 678.887 642.77 681.909L766.624 726.988C774.928 730.011 775.471 736.07 767.838 740.521L558.09 862.842C550.456 867.294 537.537 868.453 529.233 865.431Z" fill="#208AF3"/>
<path opacity="0.9" d="M1021.47 876.837L897.613 831.757C889.31 828.735 888.766 822.676 896.399 818.225L1106.15 695.904C1113.78 691.452 1126.7 690.293 1135 693.315L1258.86 738.395C1267.16 741.417 1267.71 747.476 1260.07 751.927L1050.32 874.249C1042.69 878.7 1029.77 879.859 1021.47 876.837Z" fill="#208AF3"/>
<path opacity="0.4" d="M396.444 1044.31L272.59 999.23C264.286 996.208 263.743 990.149 271.376 985.697L481.124 863.376C488.757 858.925 501.677 857.766 509.981 860.788L633.835 905.867C642.138 908.89 642.682 914.948 635.049 919.4L425.301 1041.72C417.667 1046.17 404.748 1047.33 396.444 1044.31Z" fill="#208AF3"/>
<path opacity="0.5" d="M1462.58 1188.59L1338.72 1143.52C1330.42 1140.49 1329.88 1134.43 1337.51 1129.98L1547.26 1007.66C1554.89 1003.21 1567.81 1002.05 1576.11 1005.07L1699.97 1050.15C1708.27 1053.17 1708.81 1059.23 1701.18 1063.69L1491.43 1186.01C1483.8 1190.46 1470.88 1191.62 1462.58 1188.59Z" fill="#208AF3"/>
<path opacity="0.2" d="M1768.55 255.954L1644.69 210.875C1636.39 207.852 1635.84 201.794 1643.48 197.342L1911.7 40.9218C1919.33 36.4701 1932.25 35.3114 1940.55 38.3337L2064.41 83.413C2072.71 86.4353 2073.25 92.4941 2065.62 96.9457L1797.4 253.366C1789.77 257.818 1776.85 258.976 1768.55 255.954Z" fill="#208AF3"/>
<path opacity="0.9" d="M-106.587 758.384L-230.441 713.304C-238.745 710.282 -239.289 704.223 -231.655 699.772L36.5633 543.351C44.1966 538.9 57.1161 537.741 65.4197 540.763L189.274 585.843C197.578 588.865 198.121 594.924 190.488 599.375L-77.7307 755.796C-85.364 760.247 -98.2835 761.406 -106.587 758.384Z" fill="#208AF3"/>
<path opacity="0.8" d="M1598.83 1017.98L1474.97 972.902C1466.67 969.88 1466.13 963.821 1473.76 959.369L1741.98 802.949C1749.61 798.497 1762.53 797.339 1770.83 800.361L1894.69 845.44C1902.99 848.463 1903.54 854.521 1895.9 858.973L1627.68 1015.39C1620.05 1019.84 1607.13 1021 1598.83 1017.98Z" fill="#208AF3"/>
<path opacity="0.8" d="M973.796 1185.45L849.941 1140.37C841.638 1137.34 841.094 1131.29 848.728 1126.83L1116.95 970.414C1124.58 965.963 1137.5 964.804 1145.8 967.826L1269.66 1012.91C1277.96 1015.93 1278.5 1021.99 1270.87 1026.44L1002.65 1182.86C995.019 1187.31 982.099 1188.47 973.796 1185.45Z" fill="#208AF3"/>
<path opacity="0.3" d="M1643.35 405.397L1350.31 298.738C1342 295.716 1341.46 289.657 1349.09 285.205L1558.84 162.884C1566.48 158.432 1579.4 157.274 1587.7 160.296L1880.74 266.955C1889.05 269.977 1889.59 276.036 1881.96 280.488L1672.21 402.809C1664.57 407.261 1651.66 408.419 1643.35 405.397Z" fill="#208AF3"/>
<path opacity="0.9" d="M1951.67 896.014L1658.63 789.355C1650.33 786.333 1649.78 780.274 1657.42 775.822L1867.16 653.501C1874.8 649.05 1887.72 647.891 1896.02 650.913L2189.06 757.572C2197.37 760.594 2197.91 766.653 2190.28 771.105L1980.53 893.426C1972.9 897.878 1959.98 899.036 1951.67 896.014Z" fill="#208AF3"/>
<path opacity="0.5" d="M1326.61 1063.49L1033.57 956.836C1025.26 953.813 1024.72 947.755 1032.35 943.303L1242.1 820.982C1249.73 816.53 1262.65 815.371 1270.96 818.394L1564 925.053C1572.3 928.075 1572.85 934.134 1565.21 938.585L1355.47 1060.91C1347.83 1065.36 1334.91 1066.52 1326.61 1063.49Z" fill="#208AF3"/>
<path opacity="0.4" d="M701.578 1230.97L408.535 1124.31C400.231 1121.29 399.688 1115.23 407.321 1110.78L617.069 988.458C624.703 984.007 637.622 982.848 645.926 985.87L938.969 1092.53C947.273 1095.55 947.816 1101.61 940.183 1106.06L730.435 1228.38C722.801 1232.83 709.882 1233.99 701.578 1230.97Z" fill="#208AF3"/>
<path d="M1060.79 609.389L1024.89 596.323C1022.3 595.379 1022.13 593.486 1024.51 592.094L1086.7 555.832C1089.08 554.44 1093.12 554.078 1095.71 555.023L1131.61 568.088C1134.2 569.033 1134.37 570.926 1131.99 572.317L1069.81 608.58C1067.42 609.971 1063.39 610.333 1060.79 609.389Z" fill="#208AF3" stroke="white" stroke-width="4"/>
<path d="M1082.95 584.419C1080.29 585.969 1075.79 586.373 1072.9 585.32C1070.01 584.267 1069.82 582.157 1072.48 580.607L1073.54 579.986C1076.2 578.435 1080.7 578.032 1083.59 579.084C1086.49 580.137 1086.67 582.247 1084.02 583.798L1082.95 584.419Z" fill="white"/>
<path d="M1564.96 244.011L1463.68 207.15C1455.9 204.316 1455.39 198.636 1462.54 194.463L1639.06 91.5242C1646.21 87.3508 1658.32 86.2645 1666.11 89.0979L1767.38 125.959C1775.17 128.792 1775.68 134.472 1768.52 138.646L1592.01 241.584C1584.85 245.758 1572.74 246.844 1564.96 244.011Z" fill="#208AF3" stroke="white" stroke-width="4"/>
<path d="M1614.53 168.774C1611.87 170.325 1607.37 170.728 1604.48 169.676C1601.59 168.623 1601.4 166.513 1604.06 164.962L1605.12 164.341C1607.78 162.791 1612.28 162.387 1615.17 163.44C1618.06 164.492 1618.25 166.603 1615.59 168.153L1614.53 168.774Z" fill="white"/>
<path d="M1658.45 666.439L1596.82 644.007C1590.59 641.74 1590.18 637.196 1595.91 633.857L1706.8 569.184C1712.53 565.845 1722.22 564.976 1728.44 567.242L1790.08 589.675C1796.31 591.942 1796.71 596.486 1790.99 599.825L1680.09 664.498C1674.37 667.837 1664.68 668.706 1658.45 666.439Z" fill="#208AF3" stroke="white" stroke-width="4"/>
<path d="M1692.44 619.063C1689.78 620.614 1685.28 621.017 1682.39 619.965C1679.49 618.912 1679.3 616.802 1681.96 615.251L1683.03 614.63C1685.69 613.08 1690.19 612.676 1693.08 613.729C1695.97 614.782 1696.16 616.892 1693.5 618.442L1692.44 619.063Z" fill="white"/>
<path d="M190.349 682.478L157.793 670.629C153.122 668.929 152.817 665.521 157.11 663.017L218.911 626.976C223.205 624.472 230.472 623.82 235.143 625.52L267.699 637.369C272.37 639.069 272.675 642.477 268.382 644.981L206.581 681.023C202.287 683.527 195.02 684.178 190.349 682.478Z" fill="#208AF3" stroke="white" stroke-width="4"/>
<path d="M211.756 656.212C209.097 657.762 204.598 658.166 201.705 657.113C198.813 656.06 198.624 653.95 201.283 652.4L202.347 651.779C205.006 650.228 209.506 649.825 212.398 650.877C215.29 651.93 215.479 654.04 212.821 655.591L211.756 656.212Z" fill="white"/>
<path d="M815.388 947.963L782.832 936.113C778.161 934.413 777.856 931.005 782.15 928.501L843.95 892.46C848.244 889.956 855.511 889.304 860.182 891.004L892.738 902.854C897.409 904.554 897.714 907.962 893.421 910.466L831.62 946.507C827.326 949.011 820.059 949.663 815.388 947.963Z" fill="#208AF3" stroke="white" stroke-width="4"/>
<path d="M836.795 921.704C834.136 923.254 829.637 923.658 826.744 922.605C823.852 921.553 823.663 919.442 826.322 917.892L827.386 917.271C830.045 915.72 834.545 915.317 837.437 916.369C840.329 917.422 840.518 919.532 837.86 921.083L836.795 921.704Z" fill="white"/>
<path d="M815.388 332.681L782.832 320.832C778.161 319.132 777.856 315.724 782.15 313.22L843.95 277.179C848.244 274.675 855.511 274.023 860.182 275.723L892.738 287.572C897.409 289.272 897.714 292.68 893.421 295.185L831.62 331.226C827.326 333.73 820.059 334.382 815.388 332.681Z" fill="#208AF3" stroke="white" stroke-width="4"/>
<path d="M836.787 306.419C834.129 307.969 829.629 308.373 826.737 307.32C823.845 306.267 823.655 304.157 826.314 302.607L827.379 301.986C830.037 300.435 834.537 300.032 837.429 301.084C840.321 302.137 840.511 304.247 837.852 305.798L836.787 306.419Z" fill="white"/>
</g>
<defs>
<clipPath id="clip0_247_272">
<rect width="1920" height="1081" fill="white" transform="matrix(-1 0 0 1 1920 0)"/>
</clipPath>
</defs>
</svg>
