<svg xmlns="http://www.w3.org/2000/svg" width="100%" height="100%" viewBox="0 0 22282 11146" fill="none">
	<g stroke-width="2" stroke="#FFFFFF">
		<path d="M701 2093C508.805 2093 353 1937.2 353 1745C353 1552.8 508.805 1397 701 1397" />
		<path d="M701 2789C893.195 2789 1049 2633.2 1049 2441C1049 2248.8 893.195 2093 701 2093" />
		<path d="M701 2093C701 2285.2 545.195 2441 353 2441C160.805 2441 5 2285.2 5 2093" />
		<path d="M1397 2093C1397 1900.8 1241.2 1745 1049 1745C856.805 1745 701 1900.8 701 2093" />
		<path d="M701 701C508.805 701 353 545.195 353 353C353 160.805 508.805 5 701 5" />
		<path d="M701 1397C893.195 1397 1049 1241.2 1049 1049C1049 856.805 893.195 701 701 701" />
		<path d="M701 701C701 893.195 545.195 1049 353 1049C160.805 1049 5 893.195 5 701" />
		<path d="M1397 701C1397 508.805 1241.2 353 1049 353C856.805 353 701 508.805 701 701" />
		<path d="M2093 2093C1900.8 2093 1745 1937.2 1745 1745C1745 1552.8 1900.8 1397 2093 1397" />
		<path d="M2093 2789C2285.2 2789 2441 2633.2 2441 2441C2441 2248.8 2285.2 2093 2093 2093" />
		<path d="M2093 2093C2093 2285.2 1937.2 2441 1745 2441C1552.8 2441 1397 2285.2 1397 2093" />
		<path d="M2789 2093C2789 1900.8 2633.2 1745 2441 1745C2248.8 1745 2093 1900.8 2093 2093" />
		<path d="M2093 701C1900.8 701 1745 545.195 1745 353C1745 160.805 1900.8 5 2093 5" />
		<path d="M2093 1397C2285.2 1397 2441 1241.2 2441 1049C2441 856.805 2285.2 701 2093 701" />
		<path d="M2093 701C2093 893.195 1937.2 1049 1745 1049C1552.8 1049 1397 893.195 1397 701" />
		<path d="M2789 701C2789 508.805 2633.2 353 2441 353C2248.8 353 2093 508.805 2093 701" />
		<path d="M701 4877C508.805 4877 353 4721.2 353 4529C353 4336.8 508.805 4181 701 4181" />
		<path d="M701 5573C893.195 5573 1049 5417.2 1049 5225C1049 5032.8 893.195 4877 701 4877" />
		<path d="M701 4877C701 5069.2 545.195 5225 353 5225C160.805 5225 5 5069.2 5 4877" />
		<path d="M1397 4877C1397 4684.8 1241.2 4529 1049 4529C856.805 4529 701 4684.8 701 4877" />
		<path d="M701 3485C508.805 3485 353 3329.2 353 3137C353 2944.8 508.805 2789 701 2789" />
		<path d="M701 4181C893.195 4181 1049 4025.2 1049 3833C1049 3640.8 893.195 3485 701 3485" />
		<path d="M701 3485C701 3677.2 545.195 3833 353 3833C160.805 3833 5 3677.2 5 3485" />
		<path d="M1397 3485C1397 3292.8 1241.2 3137 1049 3137C856.805 3137 701 3292.8 701 3485" />
		<path d="M2093 4877C1900.8 4877 1745 4721.2 1745 4529C1745 4336.8 1900.8 4181 2093 4181" />
		<path d="M2093 5573C2285.2 5573 2441 5417.2 2441 5225C2441 5032.8 2285.2 4877 2093 4877" />
		<path d="M2093 4877C2093 5069.2 1937.2 5225 1745 5225C1552.8 5225 1397 5069.2 1397 4877" />
		<path d="M2789 4877C2789 4684.8 2633.2 4529 2441 4529C2248.8 4529 2093 4684.8 2093 4877" />
		<path d="M2093 3485C1900.8 3485 1745 3329.2 1745 3137C1745 2944.8 1900.8 2789 2093 2789" />
		<path d="M2093 4181C2285.2 4181 2441 4025.2 2441 3833C2441 3640.8 2285.2 3485 2093 3485" />
		<path d="M2093 3485C2093 3677.2 1937.2 3833 1745 3833C1552.8 3833 1397 3677.2 1397 3485" />
		<path d="M2789 3485C2789 3292.8 2633.2 3137 2441 3137C2248.8 3137 2093 3292.8 2093 3485" />
		<path d="M3485 2093C3292.8 2093 3137 1937.2 3137 1745C3137 1552.8 3292.8 1397 3485 1397" />
		<path d="M3485 2789C3677.2 2789 3833 2633.2 3833 2441C3833 2248.8 3677.2 2093 3485 2093" />
		<path d="M3485 2093C3485 2285.2 3329.2 2441 3137 2441C2944.8 2441 2789 2285.2 2789 2093" />
		<path d="M4181 2093C4181 1900.8 4025.2 1745 3833 1745C3640.8 1745 3485 1900.8 3485 2093" />
		<path d="M3485 701C3292.8 701 3137 545.195 3137 353C3137 160.805 3292.8 5 3485 5" />
		<path d="M3485 1397C3677.2 1397 3833 1241.2 3833 1049C3833 856.805 3677.2 701 3485 701" />
		<path d="M3485 701C3485 893.195 3329.2 1049 3137 1049C2944.8 1049 2789 893.195 2789 701" />
		<path d="M4181 701C4181 508.805 4025.2 353 3833 353C3640.8 353 3485 508.805 3485 701" />
		<path d="M4877 2093C4684.8 2093 4529 1937.2 4529 1745C4529 1552.8 4684.8 1397 4877 1397" />
		<path d="M4877 2789C5069.2 2789 5225 2633.2 5225 2441C5225 2248.8 5069.2 2093 4877 2093" />
		<path d="M4877 2093C4877 2285.2 4721.2 2441 4529 2441C4336.8 2441 4181 2285.2 4181 2093" />
		<path d="M5573 2093C5573 1900.8 5417.2 1745 5225 1745C5032.8 1745 4877 1900.8 4877 2093" />
		<path d="M4877 701C4684.8 701 4529 545.195 4529 353C4529 160.805 4684.8 5 4877 5" />
		<path d="M4877 1397C5069.2 1397 5225 1241.2 5225 1049C5225 856.805 5069.2 701 4877 701" />
		<path d="M4877 701C4877 893.195 4721.2 1049 4529 1049C4336.8 1049 4181 893.195 4181 701" />
		<path d="M5573 701C5573 508.805 5417.2 353 5225 353C5032.8 353 4877 508.805 4877 701" />
		<path d="M3485 4877C3292.8 4877 3137 4721.2 3137 4529C3137 4336.8 3292.8 4181 3485 4181" />
		<path d="M3485 5573C3677.2 5573 3833 5417.2 3833 5225C3833 5032.8 3677.2 4877 3485 4877" />
		<path d="M3485 4877C3485 5069.2 3329.2 5225 3137 5225C2944.8 5225 2789 5069.2 2789 4877" />
		<path d="M4181 4877C4181 4684.8 4025.2 4529 3833 4529C3640.8 4529 3485 4684.8 3485 4877" />
		<path d="M3485 3485C3292.8 3485 3137 3329.2 3137 3137C3137 2944.8 3292.8 2789 3485 2789" />
		<path d="M3485 4181C3677.2 4181 3833 4025.2 3833 3833C3833 3640.8 3677.2 3485 3485 3485" />
		<path d="M3485 3485C3485 3677.2 3329.2 3833 3137 3833C2944.8 3833 2789 3677.2 2789 3485" />
		<path d="M4181 3485C4181 3292.8 4025.2 3137 3833 3137C3640.8 3137 3485 3292.8 3485 3485" />
		<path d="M4877 4877C4684.8 4877 4529 4721.2 4529 4529C4529 4336.8 4684.8 4181 4877 4181" />
		<path d="M4877 5573C5069.2 5573 5225 5417.2 5225 5225C5225 5032.8 5069.2 4877 4877 4877" />
		<path d="M4877 4877C4877 5069.2 4721.2 5225 4529 5225C4336.8 5225 4181 5069.2 4181 4877" />
		<path d="M5573 4877C5573 4684.8 5417.2 4529 5225 4529C5032.8 4529 4877 4684.8 4877 4877" />
		<path d="M4877 3485C4684.8 3485 4529 3329.2 4529 3137C4529 2944.8 4684.8 2789 4877 2789" />
		<path d="M4877 4181C5069.2 4181 5225 4025.2 5225 3833C5225 3640.8 5069.2 3485 4877 3485" />
		<path d="M4877 3485C4877 3677.2 4721.2 3833 4529 3833C4336.8 3833 4181 3677.2 4181 3485" />
		<path d="M5573 3485C5573 3292.8 5417.2 3137 5225 3137C5032.8 3137 4877 3292.8 4877 3485" />
		<path d="M6269 2093C6076.8 2093 5921 1937.2 5921 1745C5921 1552.8 6076.8 1397 6269 1397" />
		<path d="M6269 2789C6461.2 2789 6617 2633.2 6617 2441C6617 2248.8 6461.2 2093 6269 2093" />
		<path d="M6269 2093C6269 2285.2 6113.2 2441 5921 2441C5728.8 2441 5573 2285.2 5573 2093" />
		<path d="M6965 2093C6965 1900.8 6809.2 1745 6617 1745C6424.8 1745 6269 1900.8 6269 2093" />
		<path d="M6269 701C6076.8 701 5921 545.195 5921 353C5921 160.805 6076.8 5 6269 5" />
		<path d="M6269 1397C6461.2 1397 6617 1241.2 6617 1049C6617 856.805 6461.2 701 6269 701" />
		<path d="M6269 701C6269 893.195 6113.2 1049 5921 1049C5728.8 1049 5573 893.195 5573 701" />
		<path d="M6965 701C6965 508.805 6809.2 353 6617 353C6424.8 353 6269 508.805 6269 701" />
		<path d="M7661 2093C7468.8 2093 7313 1937.2 7313 1745C7313 1552.8 7468.8 1397 7661 1397" />
		<path d="M7661 2789C7853.2 2789 8009 2633.2 8009 2441C8009 2248.8 7853.2 2093 7661 2093" />
		<path d="M7661 2093C7661 2285.2 7505.2 2441 7313 2441C7120.8 2441 6965 2285.2 6965 2093" />
		<path d="M8357 2093C8357 1900.8 8201.2 1745 8009 1745C7816.8 1745 7661 1900.8 7661 2093" />
		<path d="M7661 701C7468.8 701 7313 545.195 7313 353C7313 160.805 7468.8 5 7661 5" />
		<path d="M7661 1397C7853.2 1397 8009 1241.2 8009 1049C8009 856.805 7853.2 701 7661 701" />
		<path d="M7661 701C7661 893.195 7505.2 1049 7313 1049C7120.8 1049 6965 893.195 6965 701" />
		<path d="M8357 701C8357 508.805 8201.2 353 8009 353C7816.8 353 7661 508.805 7661 701" />
		<path d="M6269 4877C6076.8 4877 5921 4721.2 5921 4529C5921 4336.8 6076.8 4181 6269 4181" />
		<path d="M6269 5573C6461.2 5573 6617 5417.2 6617 5225C6617 5032.8 6461.2 4877 6269 4877" />
		<path d="M6269 4877C6269 5069.2 6113.2 5225 5921 5225C5728.8 5225 5573 5069.2 5573 4877" />
		<path d="M6965 4877C6965 4684.8 6809.2 4529 6617 4529C6424.8 4529 6269 4684.8 6269 4877" />
		<path d="M6269 3485C6076.8 3485 5921 3329.2 5921 3137C5921 2944.8 6076.8 2789 6269 2789" />
		<path d="M6269 4181C6461.2 4181 6617 4025.2 6617 3833C6617 3640.8 6461.2 3485 6269 3485" />
		<path d="M6269 3485C6269 3677.2 6113.2 3833 5921 3833C5728.8 3833 5573 3677.2 5573 3485" />
		<path d="M6965 3485C6965 3292.8 6809.2 3137 6617 3137C6424.8 3137 6269 3292.8 6269 3485" />
		<path d="M7661 4877C7468.8 4877 7313 4721.2 7313 4529C7313 4336.8 7468.8 4181 7661 4181" />
		<path d="M7661 5573C7853.2 5573 8009 5417.2 8009 5225C8009 5032.8 7853.2 4877 7661 4877" />
		<path d="M7661 4877C7661 5069.2 7505.2 5225 7313 5225C7120.8 5225 6965 5069.2 6965 4877" />
		<path d="M8357 4877C8357 4684.8 8201.2 4529 8009 4529C7816.8 4529 7661 4684.8 7661 4877" />
		<path d="M7661 3485C7468.8 3485 7313 3329.2 7313 3137C7313 2944.8 7468.8 2789 7661 2789" />
		<path d="M7661 4181C7853.2 4181 8009 4025.2 8009 3833C8009 3640.8 7853.2 3485 7661 3485" />
		<path d="M7661 3485C7661 3677.2 7505.2 3833 7313 3833C7120.8 3833 6965 3677.2 6965 3485" />
		<path d="M8357 3485C8357 3292.8 8201.2 3137 8009 3137C7816.8 3137 7661 3292.8 7661 3485" />
		<path d="M9053 2093C8860.8 2093 8705 1937.2 8705 1745C8705 1552.8 8860.8 1397 9053 1397" />
		<path d="M9053 2789C9245.2 2789 9401 2633.2 9401 2441C9401 2248.8 9245.2 2093 9053 2093" />
		<path d="M9053 2093C9053 2285.2 8897.2 2441 8705 2441C8512.8 2441 8357 2285.2 8357 2093" />
		<path d="M9749 2093C9749 1900.8 9593.2 1745 9401 1745C9208.8 1745 9053 1900.8 9053 2093" />
		<path d="M9053 701C8860.8 701 8705 545.195 8705 353C8705 160.805 8860.8 5 9053 5" />
		<path d="M9053 1397C9245.2 1397 9401 1241.2 9401 1049C9401 856.805 9245.2 701 9053 701" />
		<path d="M9053 701C9053 893.195 8897.2 1049 8705 1049C8512.8 1049 8357 893.195 8357 701" />
		<path d="M9749 701C9749 508.805 9593.2 353 9401 353C9208.8 353 9053 508.805 9053 701" />
		<path d="M10445 2093C10252.8 2093 10097 1937.2 10097 1745C10097 1552.8 10252.8 1397 10445 1397" />
		<path d="M10445 2789C10637.2 2789 10793 2633.2 10793 2441C10793 2248.8 10637.2 2093 10445 2093" />
		<path d="M10445 2093C10445 2285.2 10289.2 2441 10097 2441C9904.8 2441 9749 2285.2 9749 2093" />
		<path d="M11141 2093C11141 1900.8 10985.2 1745 10793 1745C10600.8 1745 10445 1900.8 10445 2093" />
		<path d="M10445 701C10252.8 701 10097 545.195 10097 353C10097 160.805 10252.8 5 10445 5" />
		<path d="M10445 1397C10637.2 1397 10793 1241.2 10793 1049C10793 856.805 10637.2 701 10445 701" />
		<path d="M10445 701C10445 893.195 10289.2 1049 10097 1049C9904.8 1049 9749 893.195 9749 701" />
		<path d="M11141 701C11141 508.805 10985.2 353 10793 353C10600.8 353 10445 508.805 10445 701" />
		<path d="M9053 4877C8860.8 4877 8705 4721.2 8705 4529C8705 4336.8 8860.8 4181 9053 4181" />
		<path d="M9053 5573C9245.2 5573 9401 5417.2 9401 5225C9401 5032.8 9245.2 4877 9053 4877" />
		<path d="M9053 4877C9053 5069.2 8897.2 5225 8705 5225C8512.8 5225 8357 5069.2 8357 4877" />
		<path d="M9749 4877C9749 4684.8 9593.2 4529 9401 4529C9208.8 4529 9053 4684.8 9053 4877" />
		<path d="M9053 3485C8860.8 3485 8705 3329.2 8705 3137C8705 2944.8 8860.8 2789 9053 2789" />
		<path d="M9053 4181C9245.2 4181 9401 4025.2 9401 3833C9401 3640.8 9245.2 3485 9053 3485" />
		<path d="M9053 3485C9053 3677.2 8897.2 3833 8705 3833C8512.8 3833 8357 3677.2 8357 3485" />
		<path d="M9749 3485C9749 3292.8 9593.2 3137 9401 3137C9208.8 3137 9053 3292.8 9053 3485" />
		<path d="M10445 4877C10252.8 4877 10097 4721.2 10097 4529C10097 4336.8 10252.8 4181 10445 4181" />
		<path d="M10445 5573C10637.2 5573 10793 5417.2 10793 5225C10793 5032.8 10637.2 4877 10445 4877" />
		<path d="M10445 4877C10445 5069.2 10289.2 5225 10097 5225C9904.8 5225 9749 5069.2 9749 4877" />
		<path d="M11141 4877C11141 4684.8 10985.2 4529 10793 4529C10600.8 4529 10445 4684.8 10445 4877" />
		<path d="M10445 3485C10252.8 3485 10097 3329.2 10097 3137C10097 2944.8 10252.8 2789 10445 2789" />
		<path d="M10445 4181C10637.2 4181 10793 4025.2 10793 3833C10793 3640.8 10637.2 3485 10445 3485" />
		<path d="M10445 3485C10445 3677.2 10289.2 3833 10097 3833C9904.8 3833 9749 3677.2 9749 3485" />
		<path d="M11141 3485C11141 3292.8 10985.2 3137 10793 3137C10600.8 3137 10445 3292.8 10445 3485" />
		<path d="M11837 2093C11644.8 2093 11489 1937.2 11489 1745C11489 1552.8 11644.8 1397 11837 1397" />
		<path d="M11837 2789C12029.2 2789 12185 2633.2 12185 2441C12185 2248.8 12029.2 2093 11837 2093" />
		<path d="M11837 2093C11837 2285.2 11681.2 2441 11489 2441C11296.8 2441 11141 2285.2 11141 2093" />
		<path d="M12533 2093C12533 1900.8 12377.2 1745 12185 1745C11992.8 1745 11837 1900.8 11837 2093" />
		<path d="M11837 701C11644.8 701 11489 545.195 11489 353C11489 160.805 11644.8 5 11837 5" />
		<path d="M11837 1397C12029.2 1397 12185 1241.2 12185 1049C12185 856.805 12029.2 701 11837 701" />
		<path d="M11837 701C11837 893.195 11681.2 1049 11489 1049C11296.8 1049 11141 893.195 11141 701" />
		<path d="M12533 701C12533 508.805 12377.2 353 12185 353C11992.8 353 11837 508.805 11837 701" />
		<path d="M13229 2093C13036.8 2093 12881 1937.2 12881 1745C12881 1552.8 13036.8 1397 13229 1397" />
		<path d="M13229 2789C13421.2 2789 13577 2633.2 13577 2441C13577 2248.8 13421.2 2093 13229 2093" />
		<path d="M13229 2093C13229 2285.2 13073.2 2441 12881 2441C12688.8 2441 12533 2285.2 12533 2093" />
		<path d="M13925 2093C13925 1900.8 13769.2 1745 13577 1745C13384.8 1745 13229 1900.8 13229 2093" />
		<path d="M13229 701C13036.8 701 12881 545.195 12881 353C12881 160.805 13036.8 5 13229 5" />
		<path d="M13229 1397C13421.2 1397 13577 1241.2 13577 1049C13577 856.805 13421.2 701 13229 701" />
		<path d="M13229 701C13229 893.195 13073.2 1049 12881 1049C12688.8 1049 12533 893.195 12533 701" />
		<path d="M13925 701C13925 508.805 13769.2 353 13577 353C13384.8 353 13229 508.805 13229 701" />
		<path d="M11837 4877C11644.8 4877 11489 4721.2 11489 4529C11489 4336.8 11644.8 4181 11837 4181" />
		<path d="M11837 5573C12029.2 5573 12185 5417.2 12185 5225C12185 5032.8 12029.2 4877 11837 4877" />
		<path d="M11837 4877C11837 5069.2 11681.2 5225 11489 5225C11296.8 5225 11141 5069.2 11141 4877" />
		<path d="M12533 4877C12533 4684.8 12377.2 4529 12185 4529C11992.8 4529 11837 4684.8 11837 4877" />
		<path d="M11837 3485C11644.8 3485 11489 3329.2 11489 3137C11489 2944.8 11644.8 2789 11837 2789" />
		<path d="M11837 4181C12029.2 4181 12185 4025.2 12185 3833C12185 3640.8 12029.2 3485 11837 3485" />
		<path d="M11837 3485C11837 3677.2 11681.2 3833 11489 3833C11296.8 3833 11141 3677.2 11141 3485" />
		<path d="M12533 3485C12533 3292.8 12377.2 3137 12185 3137C11992.8 3137 11837 3292.8 11837 3485" />
		<path d="M13229 4877C13036.8 4877 12881 4721.2 12881 4529C12881 4336.8 13036.8 4181 13229 4181" />
		<path d="M13229 5573C13421.2 5573 13577 5417.2 13577 5225C13577 5032.8 13421.2 4877 13229 4877" />
		<path d="M13229 4877C13229 5069.2 13073.2 5225 12881 5225C12688.8 5225 12533 5069.2 12533 4877" />
		<path d="M13925 4877C13925 4684.8 13769.2 4529 13577 4529C13384.8 4529 13229 4684.8 13229 4877" />
		<path d="M13229 3485C13036.8 3485 12881 3329.2 12881 3137C12881 2944.8 13036.8 2789 13229 2789" />
		<path d="M13229 4181C13421.2 4181 13577 4025.2 13577 3833C13577 3640.8 13421.2 3485 13229 3485" />
		<path d="M13229 3485C13229 3677.2 13073.2 3833 12881 3833C12688.8 3833 12533 3677.2 12533 3485" />
		<path d="M13925 3485C13925 3292.8 13769.2 3137 13577 3137C13384.8 3137 13229 3292.8 13229 3485" />
		<path d="M14621 2093C14428.8 2093 14273 1937.2 14273 1745C14273 1552.8 14428.8 1397 14621 1397" />
		<path d="M14621 2789C14813.2 2789 14969 2633.2 14969 2441C14969 2248.8 14813.2 2093 14621 2093" />
		<path d="M14621 2093C14621 2285.2 14465.2 2441 14273 2441C14080.8 2441 13925 2285.2 13925 2093" />
		<path d="M15317 2093C15317 1900.8 15161.2 1745 14969 1745C14776.8 1745 14621 1900.8 14621 2093" />
		<path d="M14621 701C14428.8 701 14273 545.195 14273 353C14273 160.805 14428.8 5 14621 5" />
		<path d="M14621 1397C14813.2 1397 14969 1241.2 14969 1049C14969 856.805 14813.2 701 14621 701" />
		<path d="M14621 701C14621 893.195 14465.2 1049 14273 1049C14080.8 1049 13925 893.195 13925 701" />
		<path d="M15317 701C15317 508.805 15161.2 353 14969 353C14776.8 353 14621 508.805 14621 701" />
		<path d="M16013 2093C15820.8 2093 15665 1937.2 15665 1745C15665 1552.8 15820.8 1397 16013 1397" />
		<path d="M16013 2789C16205.2 2789 16361 2633.2 16361 2441C16361 2248.8 16205.2 2093 16013 2093" />
		<path d="M16013 2093C16013 2285.2 15857.2 2441 15665 2441C15472.8 2441 15317 2285.2 15317 2093" />
		<path d="M16709 2093C16709 1900.8 16553.2 1745 16361 1745C16168.8 1745 16013 1900.8 16013 2093" />
		<path d="M16013 701C15820.8 701 15665 545.195 15665 353C15665 160.805 15820.8 5 16013 5" />
		<path d="M16013 1397C16205.2 1397 16361 1241.2 16361 1049C16361 856.805 16205.2 701 16013 701" />
		<path d="M16013 701C16013 893.195 15857.2 1049 15665 1049C15472.8 1049 15317 893.195 15317 701" />
		<path d="M16709 701C16709 508.805 16553.2 353 16361 353C16168.8 353 16013 508.805 16013 701" />
		<path d="M14621 4877C14428.8 4877 14273 4721.2 14273 4529C14273 4336.8 14428.8 4181 14621 4181" />
		<path d="M14621 5573C14813.2 5573 14969 5417.2 14969 5225C14969 5032.8 14813.2 4877 14621 4877" />
		<path d="M14621 4877C14621 5069.2 14465.2 5225 14273 5225C14080.8 5225 13925 5069.2 13925 4877" />
		<path d="M15317 4877C15317 4684.8 15161.2 4529 14969 4529C14776.8 4529 14621 4684.8 14621 4877" />
		<path d="M14621 3485C14428.8 3485 14273 3329.2 14273 3137C14273 2944.8 14428.8 2789 14621 2789" />
		<path d="M14621 4181C14813.2 4181 14969 4025.2 14969 3833C14969 3640.8 14813.2 3485 14621 3485" />
		<path d="M14621 3485C14621 3677.2 14465.2 3833 14273 3833C14080.8 3833 13925 3677.2 13925 3485" />
		<path d="M15317 3485C15317 3292.8 15161.2 3137 14969 3137C14776.8 3137 14621 3292.8 14621 3485" />
		<path d="M16013 4877C15820.8 4877 15665 4721.2 15665 4529C15665 4336.8 15820.8 4181 16013 4181" />
		<path d="M16013 5573C16205.2 5573 16361 5417.2 16361 5225C16361 5032.8 16205.2 4877 16013 4877" />
		<path d="M16013 4877C16013 5069.2 15857.2 5225 15665 5225C15472.8 5225 15317 5069.2 15317 4877" />
		<path d="M16709 4877C16709 4684.8 16553.2 4529 16361 4529C16168.8 4529 16013 4684.8 16013 4877" />
		<path d="M16013 3485C15820.8 3485 15665 3329.2 15665 3137C15665 2944.8 15820.8 2789 16013 2789" />
		<path d="M16013 4181C16205.2 4181 16361 4025.2 16361 3833C16361 3640.8 16205.2 3485 16013 3485" />
		<path d="M16013 3485C16013 3677.2 15857.2 3833 15665 3833C15472.8 3833 15317 3677.2 15317 3485" />
		<path d="M16709 3485C16709 3292.8 16553.2 3137 16361 3137C16168.8 3137 16013 3292.8 16013 3485" />
		<path d="M17405 2093C17212.8 2093 17057 1937.2 17057 1745C17057 1552.8 17212.8 1397 17405 1397" />
		<path d="M17405 2789C17597.2 2789 17753 2633.2 17753 2441C17753 2248.8 17597.2 2093 17405 2093" />
		<path d="M17405 2093C17405 2285.2 17249.2 2441 17057 2441C16864.8 2441 16709 2285.2 16709 2093" />
		<path d="M18101 2093C18101 1900.8 17945.2 1745 17753 1745C17560.8 1745 17405 1900.8 17405 2093" />
		<path d="M17405 701C17212.8 701 17057 545.195 17057 353C17057 160.805 17212.8 5 17405 5" />
		<path d="M17405 1397C17597.2 1397 17753 1241.2 17753 1049C17753 856.805 17597.2 701 17405 701" />
		<path d="M17405 701C17405 893.195 17249.2 1049 17057 1049C16864.8 1049 16709 893.195 16709 701" />
		<path d="M18101 701C18101 508.805 17945.2 353 17753 353C17560.8 353 17405 508.805 17405 701" />
		<path d="M18797 2093C18604.8 2093 18449 1937.2 18449 1745C18449 1552.8 18604.8 1397 18797 1397" />
		<path d="M18797 2789C18989.2 2789 19145 2633.2 19145 2441C19145 2248.8 18989.2 2093 18797 2093" />
		<path d="M18797 2093C18797 2285.2 18641.2 2441 18449 2441C18256.8 2441 18101 2285.2 18101 2093" />
		<path d="M19493 2093C19493 1900.8 19337.2 1745 19145 1745C18952.8 1745 18797 1900.8 18797 2093" />
		<path d="M18797 701C18604.8 701 18449 545.195 18449 353C18449 160.805 18604.8 5 18797 5" />
		<path d="M18797 1397C18989.2 1397 19145 1241.2 19145 1049C19145 856.805 18989.2 701 18797 701" />
		<path d="M18797 701C18797 893.195 18641.2 1049 18449 1049C18256.8 1049 18101 893.195 18101 701" />
		<path d="M19493 701C19493 508.805 19337.2 353 19145 353C18952.8 353 18797 508.805 18797 701" />
		<path d="M17405 4877C17212.8 4877 17057 4721.2 17057 4529C17057 4336.8 17212.8 4181 17405 4181" />
		<path d="M17405 5573C17597.2 5573 17753 5417.2 17753 5225C17753 5032.8 17597.2 4877 17405 4877" />
		<path d="M17405 4877C17405 5069.2 17249.2 5225 17057 5225C16864.8 5225 16709 5069.2 16709 4877" />
		<path d="M18101 4877C18101 4684.8 17945.2 4529 17753 4529C17560.8 4529 17405 4684.8 17405 4877" />
		<path d="M17405 3485C17212.8 3485 17057 3329.2 17057 3137C17057 2944.8 17212.8 2789 17405 2789" />
		<path d="M17405 4181C17597.2 4181 17753 4025.2 17753 3833C17753 3640.8 17597.2 3485 17405 3485" />
		<path d="M17405 3485C17405 3677.2 17249.2 3833 17057 3833C16864.8 3833 16709 3677.2 16709 3485" />
		<path d="M18101 3485C18101 3292.8 17945.2 3137 17753 3137C17560.8 3137 17405 3292.8 17405 3485" />
		<path d="M18797 4877C18604.8 4877 18449 4721.2 18449 4529C18449 4336.8 18604.8 4181 18797 4181" />
		<path d="M18797 5573C18989.2 5573 19145 5417.2 19145 5225C19145 5032.8 18989.2 4877 18797 4877" />
		<path d="M18797 4877C18797 5069.2 18641.2 5225 18449 5225C18256.8 5225 18101 5069.2 18101 4877" />
		<path d="M19493 4877C19493 4684.8 19337.2 4529 19145 4529C18952.8 4529 18797 4684.8 18797 4877" />
		<path d="M18797 3485C18604.8 3485 18449 3329.2 18449 3137C18449 2944.8 18604.8 2789 18797 2789" />
		<path d="M18797 4181C18989.2 4181 19145 4025.2 19145 3833C19145 3640.8 18989.2 3485 18797 3485" />
		<path d="M18797 3485C18797 3677.2 18641.2 3833 18449 3833C18256.8 3833 18101 3677.2 18101 3485" />
		<path d="M19493 3485C19493 3292.8 19337.2 3137 19145 3137C18952.8 3137 18797 3292.8 18797 3485" />
		<path d="M20189 2093C19996.8 2093 19841 1937.2 19841 1745C19841 1552.8 19996.8 1397 20189 1397" />
		<path d="M20189 2789C20381.2 2789 20537 2633.2 20537 2441C20537 2248.8 20381.2 2093 20189 2093" />
		<path d="M20189 2093C20189 2285.2 20033.2 2441 19841 2441C19648.8 2441 19493 2285.2 19493 2093" />
		<path d="M20885 2093C20885 1900.8 20729.2 1745 20537 1745C20344.8 1745 20189 1900.8 20189 2093" />
		<path d="M20189 701C19996.8 701 19841 545.195 19841 353C19841 160.805 19996.8 5 20189 5" />
		<path d="M20189 1397C20381.2 1397 20537 1241.2 20537 1049C20537 856.805 20381.2 701 20189 701" />
		<path d="M20189 701C20189 893.195 20033.2 1049 19841 1049C19648.8 1049 19493 893.195 19493 701" />
		<path d="M20885 701C20885 508.805 20729.2 353 20537 353C20344.8 353 20189 508.805 20189 701" />
		<path d="M21581 2093C21388.8 2093 21233 1937.2 21233 1745C21233 1552.8 21388.8 1397 21581 1397" />
		<path d="M21581 2789C21773.2 2789 21929 2633.2 21929 2441C21929 2248.8 21773.2 2093 21581 2093" />
		<path d="M21581 2093C21581 2285.2 21425.2 2441 21233 2441C21040.8 2441 20885 2285.2 20885 2093" />
		<path d="M22277 2093C22277 1900.8 22121.2 1745 21929 1745C21736.8 1745 21581 1900.8 21581 2093" />
		<path d="M21581 701C21388.8 701 21233 545.195 21233 353C21233 160.805 21388.8 5 21581 5" />
		<path d="M21581 1397C21773.2 1397 21929 1241.2 21929 1049C21929 856.805 21773.2 701 21581 701" />
		<path d="M21581 701C21581 893.195 21425.2 1049 21233 1049C21040.8 1049 20885 893.195 20885 701" />
		<path d="M22277 701C22277 508.805 22121.2 353 21929 353C21736.8 353 21581 508.805 21581 701" />
		<path d="M20189 4877C19996.8 4877 19841 4721.2 19841 4529C19841 4336.8 19996.8 4181 20189 4181" />
		<path d="M20189 5573C20381.2 5573 20537 5417.2 20537 5225C20537 5032.8 20381.2 4877 20189 4877" />
		<path d="M20189 4877C20189 5069.2 20033.2 5225 19841 5225C19648.8 5225 19493 5069.2 19493 4877" />
		<path d="M20885 4877C20885 4684.8 20729.2 4529 20537 4529C20344.8 4529 20189 4684.8 20189 4877" />
		<path d="M20189 3485C19996.8 3485 19841 3329.2 19841 3137C19841 2944.8 19996.8 2789 20189 2789" />
		<path d="M20189 4181C20381.2 4181 20537 4025.2 20537 3833C20537 3640.8 20381.2 3485 20189 3485" />
		<path d="M20189 3485C20189 3677.2 20033.2 3833 19841 3833C19648.8 3833 19493 3677.2 19493 3485" />
		<path d="M20885 3485C20885 3292.8 20729.2 3137 20537 3137C20344.8 3137 20189 3292.8 20189 3485" />
		<path d="M21581 4877C21388.8 4877 21233 4721.2 21233 4529C21233 4336.8 21388.8 4181 21581 4181" />
		<path d="M21581 5573C21773.2 5573 21929 5417.2 21929 5225C21929 5032.8 21773.2 4877 21581 4877" />
		<path d="M21581 4877C21581 5069.2 21425.2 5225 21233 5225C21040.8 5225 20885 5069.2 20885 4877" />
		<path d="M22277 4877C22277 4684.8 22121.2 4529 21929 4529C21736.8 4529 21581 4684.8 21581 4877" />
		<path d="M21581 3485C21388.8 3485 21233 3329.2 21233 3137C21233 2944.8 21388.8 2789 21581 2789" />
		<path d="M21581 4181C21773.2 4181 21929 4025.2 21929 3833C21929 3640.8 21773.2 3485 21581 3485" />
		<path d="M21581 3485C21581 3677.2 21425.2 3833 21233 3833C21040.8 3833 20885 3677.2 20885 3485" />
		<path d="M22277 3485C22277 3292.8 22121.2 3137 21929 3137C21736.8 3137 21581 3292.8 21581 3485" />
		<path d="M701 7661C508.805 7661 353 7505.2 353 7313C353 7120.8 508.805 6965 701 6965" />
		<path d="M701 8357C893.195 8357 1049 8201.2 1049 8009C1049 7816.8 893.195 7661 701 7661" />
		<path d="M701 7661C701 7853.2 545.195 8009 353 8009C160.805 8009 5 7853.2 5 7661" />
		<path d="M1397 7661C1397 7468.8 1241.2 7313 1049 7313C856.805 7313 701 7468.8 701 7661" />
		<path d="M701 6269C508.805 6269 353 6113.2 353 5921C353 5728.8 508.805 5573 701 5573" />
		<path d="M701 6965C893.195 6965 1049 6809.2 1049 6617C1049 6424.8 893.195 6269 701 6269" />
		<path d="M701 6269C701 6461.2 545.195 6617 353 6617C160.805 6617 5 6461.2 5 6269" />
		<path d="M1397 6269C1397 6076.8 1241.2 5921 1049 5921C856.805 5921 701 6076.8 701 6269" />
		<path d="M2093 7661C1900.8 7661 1745 7505.2 1745 7313C1745 7120.8 1900.8 6965 2093 6965" />
		<path d="M2093 8357C2285.2 8357 2441 8201.2 2441 8009C2441 7816.8 2285.2 7661 2093 7661" />
		<path d="M2093 7661C2093 7853.2 1937.2 8009 1745 8009C1552.8 8009 1397 7853.2 1397 7661" />
		<path d="M2789 7661C2789 7468.8 2633.2 7313 2441 7313C2248.8 7313 2093 7468.8 2093 7661" />
		<path d="M2093 6269C1900.8 6269 1745 6113.2 1745 5921C1745 5728.8 1900.8 5573 2093 5573" />
		<path d="M2093 6965C2285.2 6965 2441 6809.2 2441 6617C2441 6424.8 2285.2 6269 2093 6269" />
		<path d="M2093 6269C2093 6461.2 1937.2 6617 1745 6617C1552.8 6617 1397 6461.2 1397 6269" />
		<path d="M2789 6269C2789 6076.8 2633.2 5921 2441 5921C2248.8 5921 2093 6076.8 2093 6269" />
		<path d="M701 10445C508.805 10445 353 10289.2 353 10097C353 9904.8 508.805 9749 701 9749" />
		<path d="M701 11141C893.195 11141 1049 10985.2 1049 10793C1049 10600.8 893.195 10445 701 10445" />
		<path d="M701 10445C701 10637.2 545.195 10793 353 10793C160.805 10793 5 10637.2 5 10445" />
		<path d="M1397 10445C1397 10252.8 1241.2 10097 1049 10097C856.805 10097 701 10252.8 701 10445" />
		<path d="M701 9053C508.805 9053 353 8897.2 353 8705C353 8512.8 508.805 8357 701 8357" />
		<path d="M701 9749C893.195 9749 1049 9593.2 1049 9401C1049 9208.8 893.195 9053 701 9053" />
		<path d="M701 9053C701 9245.2 545.195 9401 353 9401C160.805 9401 5 9245.2 5 9053" />
		<path d="M1397 9053C1397 8860.8 1241.2 8705 1049 8705C856.805 8705 701 8860.8 701 9053" />
		<path d="M2093 10445C1900.8 10445 1745 10289.2 1745 10097C1745 9904.8 1900.8 9749 2093 9749" />
		<path d="M2093 11141C2285.2 11141 2441 10985.2 2441 10793C2441 10600.8 2285.2 10445 2093 10445" />
		<path d="M2093 10445C2093 10637.2 1937.2 10793 1745 10793C1552.8 10793 1397 10637.2 1397 10445" />
		<path d="M2789 10445C2789 10252.8 2633.2 10097 2441 10097C2248.8 10097 2093 10252.8 2093 10445" />
		<path d="M2093 9053C1900.8 9053 1745 8897.2 1745 8705C1745 8512.8 1900.8 8357 2093 8357" />
		<path d="M2093 9749C2285.2 9749 2441 9593.2 2441 9401C2441 9208.8 2285.2 9053 2093 9053" />
		<path d="M2093 9053C2093 9245.2 1937.2 9401 1745 9401C1552.8 9401 1397 9245.2 1397 9053" />
		<path d="M2789 9053C2789 8860.8 2633.2 8705 2441 8705C2248.8 8705 2093 8860.8 2093 9053" />
		<path d="M3485 7661C3292.8 7661 3137 7505.2 3137 7313C3137 7120.8 3292.8 6965 3485 6965" />
		<path d="M3485 8357C3677.2 8357 3833 8201.2 3833 8009C3833 7816.8 3677.2 7661 3485 7661" />
		<path d="M3485 7661C3485 7853.2 3329.2 8009 3137 8009C2944.8 8009 2789 7853.2 2789 7661" />
		<path d="M4181 7661C4181 7468.8 4025.2 7313 3833 7313C3640.8 7313 3485 7468.8 3485 7661" />
		<path d="M3485 6269C3292.8 6269 3137 6113.2 3137 5921C3137 5728.8 3292.8 5573 3485 5573" />
		<path d="M3485 6965C3677.2 6965 3833 6809.2 3833 6617C3833 6424.8 3677.2 6269 3485 6269" />
		<path d="M3485 6269C3485 6461.2 3329.2 6617 3137 6617C2944.8 6617 2789 6461.2 2789 6269" />
		<path d="M4181 6269C4181 6076.8 4025.2 5921 3833 5921C3640.8 5921 3485 6076.8 3485 6269" />
		<path d="M4877 7661C4684.8 7661 4529 7505.2 4529 7313C4529 7120.8 4684.8 6965 4877 6965" />
		<path d="M4877 8357C5069.2 8357 5225 8201.2 5225 8009C5225 7816.8 5069.2 7661 4877 7661" />
		<path d="M4877 7661C4877 7853.2 4721.2 8009 4529 8009C4336.8 8009 4181 7853.2 4181 7661" />
		<path d="M5573 7661C5573 7468.8 5417.2 7313 5225 7313C5032.8 7313 4877 7468.8 4877 7661" />
		<path d="M4877 6269C4684.8 6269 4529 6113.2 4529 5921C4529 5728.8 4684.8 5573 4877 5573" />
		<path d="M4877 6965C5069.2 6965 5225 6809.2 5225 6617C5225 6424.8 5069.2 6269 4877 6269" />
		<path d="M4877 6269C4877 6461.2 4721.2 6617 4529 6617C4336.8 6617 4181 6461.2 4181 6269" />
		<path d="M5573 6269C5573 6076.8 5417.2 5921 5225 5921C5032.8 5921 4877 6076.8 4877 6269" />
		<path d="M3485 10445C3292.8 10445 3137 10289.2 3137 10097C3137 9904.8 3292.8 9749 3485 9749" />
		<path d="M3485 11141C3677.2 11141 3833 10985.2 3833 10793C3833 10600.8 3677.2 10445 3485 10445" />
		<path d="M3485 10445C3485 10637.2 3329.2 10793 3137 10793C2944.8 10793 2789 10637.2 2789 10445" />
		<path d="M4181 10445C4181 10252.8 4025.2 10097 3833 10097C3640.8 10097 3485 10252.8 3485 10445" />
		<path d="M3485 9053C3292.8 9053 3137 8897.2 3137 8705C3137 8512.8 3292.8 8357 3485 8357" />
		<path d="M3485 9749C3677.2 9749 3833 9593.2 3833 9401C3833 9208.8 3677.2 9053 3485 9053" />
		<path d="M3485 9053C3485 9245.2 3329.2 9401 3137 9401C2944.8 9401 2789 9245.2 2789 9053" />
		<path d="M4181 9053C4181 8860.8 4025.2 8705 3833 8705C3640.8 8705 3485 8860.8 3485 9053" />
		<path d="M4877 10445C4684.8 10445 4529 10289.2 4529 10097C4529 9904.8 4684.8 9749 4877 9749" />
		<path d="M4877 11141C5069.2 11141 5225 10985.2 5225 10793C5225 10600.8 5069.2 10445 4877 10445" />
		<path d="M4877 10445C4877 10637.2 4721.2 10793 4529 10793C4336.8 10793 4181 10637.2 4181 10445" />
		<path d="M5573 10445C5573 10252.8 5417.2 10097 5225 10097C5032.8 10097 4877 10252.8 4877 10445" />
		<path d="M4877 9053C4684.8 9053 4529 8897.2 4529 8705C4529 8512.8 4684.8 8357 4877 8357" />
		<path d="M4877 9749C5069.2 9749 5225 9593.2 5225 9401C5225 9208.8 5069.2 9053 4877 9053" />
		<path d="M4877 9053C4877 9245.2 4721.2 9401 4529 9401C4336.8 9401 4181 9245.2 4181 9053" />
		<path d="M5573 9053C5573 8860.8 5417.2 8705 5225 8705C5032.8 8705 4877 8860.8 4877 9053" />
		<path d="M6269 7661C6076.8 7661 5921 7505.2 5921 7313C5921 7120.8 6076.8 6965 6269 6965" />
		<path d="M6269 8357C6461.2 8357 6617 8201.2 6617 8009C6617 7816.8 6461.2 7661 6269 7661" />
		<path d="M6269 7661C6269 7853.2 6113.2 8009 5921 8009C5728.8 8009 5573 7853.2 5573 7661" />
		<path d="M6965 7661C6965 7468.8 6809.2 7313 6617 7313C6424.8 7313 6269 7468.8 6269 7661" />
		<path d="M6269 6269C6076.8 6269 5921 6113.2 5921 5921C5921 5728.8 6076.8 5573 6269 5573" />
		<path d="M6269 6965C6461.2 6965 6617 6809.2 6617 6617C6617 6424.8 6461.2 6269 6269 6269" />
		<path d="M6269 6269C6269 6461.2 6113.2 6617 5921 6617C5728.8 6617 5573 6461.2 5573 6269" />
		<path d="M6965 6269C6965 6076.8 6809.2 5921 6617 5921C6424.8 5921 6269 6076.8 6269 6269" />
		<path d="M7661 7661C7468.8 7661 7313 7505.2 7313 7313C7313 7120.8 7468.8 6965 7661 6965" />
		<path d="M7661 8357C7853.2 8357 8009 8201.2 8009 8009C8009 7816.8 7853.2 7661 7661 7661" />
		<path d="M7661 7661C7661 7853.2 7505.2 8009 7313 8009C7120.8 8009 6965 7853.2 6965 7661" />
		<path d="M8357 7661C8357 7468.8 8201.2 7313 8009 7313C7816.8 7313 7661 7468.8 7661 7661" />
		<path d="M7661 6269C7468.8 6269 7313 6113.2 7313 5921C7313 5728.8 7468.8 5573 7661 5573" />
		<path d="M7661 6965C7853.2 6965 8009 6809.2 8009 6617C8009 6424.8 7853.2 6269 7661 6269" />
		<path d="M7661 6269C7661 6461.2 7505.2 6617 7313 6617C7120.8 6617 6965 6461.2 6965 6269" />
		<path d="M8357 6269C8357 6076.8 8201.2 5921 8009 5921C7816.8 5921 7661 6076.8 7661 6269" />
		<path d="M6269 10445C6076.8 10445 5921 10289.2 5921 10097C5921 9904.8 6076.8 9749 6269 9749" />
		<path d="M6269 11141C6461.2 11141 6617 10985.2 6617 10793C6617 10600.8 6461.2 10445 6269 10445" />
		<path d="M6269 10445C6269 10637.2 6113.2 10793 5921 10793C5728.8 10793 5573 10637.2 5573 10445" />
		<path d="M6965 10445C6965 10252.8 6809.2 10097 6617 10097C6424.8 10097 6269 10252.8 6269 10445" />
		<path d="M6269 9053C6076.8 9053 5921 8897.2 5921 8705C5921 8512.8 6076.8 8357 6269 8357" />
		<path d="M6269 9749C6461.2 9749 6617 9593.2 6617 9401C6617 9208.8 6461.2 9053 6269 9053" />
		<path d="M6269 9053C6269 9245.2 6113.2 9401 5921 9401C5728.8 9401 5573 9245.2 5573 9053" />
		<path d="M6965 9053C6965 8860.8 6809.2 8705 6617 8705C6424.8 8705 6269 8860.8 6269 9053" />
		<path d="M7661 10445C7468.8 10445 7313 10289.2 7313 10097C7313 9904.8 7468.8 9749 7661 9749" />
		<path d="M7661 11141C7853.2 11141 8009 10985.2 8009 10793C8009 10600.8 7853.2 10445 7661 10445" />
		<path d="M7661 10445C7661 10637.2 7505.2 10793 7313 10793C7120.8 10793 6965 10637.2 6965 10445" />
		<path d="M8357 10445C8357 10252.8 8201.2 10097 8009 10097C7816.8 10097 7661 10252.8 7661 10445" />
		<path d="M7661 9053C7468.8 9053 7313 8897.2 7313 8705C7313 8512.8 7468.8 8357 7661 8357" />
		<path d="M7661 9749C7853.2 9749 8009 9593.2 8009 9401C8009 9208.8 7853.2 9053 7661 9053" />
		<path d="M7661 9053C7661 9245.2 7505.2 9401 7313 9401C7120.8 9401 6965 9245.2 6965 9053" />
		<path d="M8357 9053C8357 8860.8 8201.2 8705 8009 8705C7816.8 8705 7661 8860.8 7661 9053" />
		<path d="M9053 7661C8860.8 7661 8705 7505.2 8705 7313C8705 7120.8 8860.8 6965 9053 6965" />
		<path d="M9053 8357C9245.2 8357 9401 8201.2 9401 8009C9401 7816.8 9245.2 7661 9053 7661" />
		<path d="M9053 7661C9053 7853.2 8897.2 8009 8705 8009C8512.8 8009 8357 7853.2 8357 7661" />
		<path d="M9749 7661C9749 7468.8 9593.2 7313 9401 7313C9208.8 7313 9053 7468.8 9053 7661" />
		<path d="M9053 6269C8860.8 6269 8705 6113.2 8705 5921C8705 5728.8 8860.8 5573 9053 5573" />
		<path d="M9053 6965C9245.2 6965 9401 6809.2 9401 6617C9401 6424.8 9245.2 6269 9053 6269" />
		<path d="M9053 6269C9053 6461.2 8897.2 6617 8705 6617C8512.8 6617 8357 6461.2 8357 6269" />
		<path d="M9749 6269C9749 6076.8 9593.2 5921 9401 5921C9208.8 5921 9053 6076.8 9053 6269" />
		<path d="M10445 7661C10252.8 7661 10097 7505.2 10097 7313C10097 7120.8 10252.8 6965 10445 6965" />
		<path d="M10445 8357C10637.2 8357 10793 8201.2 10793 8009C10793 7816.8 10637.2 7661 10445 7661" />
		<path d="M10445 7661C10445 7853.2 10289.2 8009 10097 8009C9904.8 8009 9749 7853.2 9749 7661" />
		<path d="M11141 7661C11141 7468.8 10985.2 7313 10793 7313C10600.8 7313 10445 7468.8 10445 7661" />
		<path d="M10445 6269C10252.8 6269 10097 6113.2 10097 5921C10097 5728.8 10252.8 5573 10445 5573" />
		<path d="M10445 6965C10637.2 6965 10793 6809.2 10793 6617C10793 6424.8 10637.2 6269 10445 6269" />
		<path d="M10445 6269C10445 6461.2 10289.2 6617 10097 6617C9904.8 6617 9749 6461.2 9749 6269" />
		<path d="M11141 6269C11141 6076.8 10985.2 5921 10793 5921C10600.8 5921 10445 6076.8 10445 6269" />
		<path d="M9053 10445C8860.8 10445 8705 10289.2 8705 10097C8705 9904.8 8860.8 9749 9053 9749" />
		<path d="M9053 11141C9245.2 11141 9401 10985.2 9401 10793C9401 10600.8 9245.2 10445 9053 10445" />
		<path d="M9053 10445C9053 10637.2 8897.2 10793 8705 10793C8512.8 10793 8357 10637.2 8357 10445" />
		<path d="M9749 10445C9749 10252.8 9593.2 10097 9401 10097C9208.8 10097 9053 10252.8 9053 10445" />
		<path d="M9053 9053C8860.8 9053 8705 8897.2 8705 8705C8705 8512.8 8860.8 8357 9053 8357" />
		<path d="M9053 9749C9245.2 9749 9401 9593.2 9401 9401C9401 9208.8 9245.2 9053 9053 9053" />
		<path d="M9053 9053C9053 9245.2 8897.2 9401 8705 9401C8512.8 9401 8357 9245.2 8357 9053" />
		<path d="M9749 9053C9749 8860.8 9593.2 8705 9401 8705C9208.8 8705 9053 8860.8 9053 9053" />
		<path d="M10445 10445C10252.8 10445 10097 10289.2 10097 10097C10097 9904.8 10252.8 9749 10445 9749" />
		<path d="M10445 11141C10637.2 11141 10793 10985.2 10793 10793C10793 10600.8 10637.2 10445 10445 10445" />
		<path d="M10445 10445C10445 10637.2 10289.2 10793 10097 10793C9904.8 10793 9749 10637.2 9749 10445" />
		<path d="M11141 10445C11141 10252.8 10985.2 10097 10793 10097C10600.8 10097 10445 10252.8 10445 10445" />
		<path d="M10445 9053C10252.8 9053 10097 8897.2 10097 8705C10097 8512.8 10252.8 8357 10445 8357" />
		<path d="M10445 9749C10637.2 9749 10793 9593.2 10793 9401C10793 9208.8 10637.2 9053 10445 9053" />
		<path d="M10445 9053C10445 9245.2 10289.2 9401 10097 9401C9904.8 9401 9749 9245.2 9749 9053" />
		<path d="M11141 9053C11141 8860.8 10985.2 8705 10793 8705C10600.8 8705 10445 8860.8 10445 9053" />
		<path d="M11837 7661C11644.8 7661 11489 7505.2 11489 7313C11489 7120.8 11644.8 6965 11837 6965" />
		<path d="M11837 8357C12029.2 8357 12185 8201.2 12185 8009C12185 7816.8 12029.2 7661 11837 7661" />
		<path d="M11837 7661C11837 7853.2 11681.2 8009 11489 8009C11296.8 8009 11141 7853.2 11141 7661" />
		<path d="M12533 7661C12533 7468.8 12377.2 7313 12185 7313C11992.8 7313 11837 7468.8 11837 7661" />
		<path d="M11837 6269C11644.8 6269 11489 6113.2 11489 5921C11489 5728.8 11644.8 5573 11837 5573" />
		<path d="M11837 6965C12029.2 6965 12185 6809.2 12185 6617C12185 6424.8 12029.2 6269 11837 6269" />
		<path d="M11837 6269C11837 6461.2 11681.2 6617 11489 6617C11296.8 6617 11141 6461.2 11141 6269" />
		<path d="M12533 6269C12533 6076.8 12377.2 5921 12185 5921C11992.8 5921 11837 6076.8 11837 6269" />
		<path d="M13229 7661C13036.8 7661 12881 7505.2 12881 7313C12881 7120.8 13036.8 6965 13229 6965" />
		<path d="M13229 8357C13421.2 8357 13577 8201.2 13577 8009C13577 7816.8 13421.2 7661 13229 7661" />
		<path d="M13229 7661C13229 7853.2 13073.2 8009 12881 8009C12688.8 8009 12533 7853.2 12533 7661" />
		<path d="M13925 7661C13925 7468.8 13769.2 7313 13577 7313C13384.8 7313 13229 7468.8 13229 7661" />
		<path d="M13229 6269C13036.8 6269 12881 6113.2 12881 5921C12881 5728.8 13036.8 5573 13229 5573" />
		<path d="M13229 6965C13421.2 6965 13577 6809.2 13577 6617C13577 6424.8 13421.2 6269 13229 6269" />
		<path d="M13229 6269C13229 6461.2 13073.2 6617 12881 6617C12688.8 6617 12533 6461.2 12533 6269" />
		<path d="M13925 6269C13925 6076.8 13769.2 5921 13577 5921C13384.8 5921 13229 6076.8 13229 6269" />
		<path d="M11837 10445C11644.8 10445 11489 10289.2 11489 10097C11489 9904.8 11644.8 9749 11837 9749" />
		<path d="M11837 11141C12029.2 11141 12185 10985.2 12185 10793C12185 10600.8 12029.2 10445 11837 10445" />
		<path d="M11837 10445C11837 10637.2 11681.2 10793 11489 10793C11296.8 10793 11141 10637.2 11141 10445" />
		<path d="M12533 10445C12533 10252.8 12377.2 10097 12185 10097C11992.8 10097 11837 10252.8 11837 10445" />
		<path d="M11837 9053C11644.8 9053 11489 8897.2 11489 8705C11489 8512.8 11644.8 8357 11837 8357" />
		<path d="M11837 9749C12029.2 9749 12185 9593.2 12185 9401C12185 9208.8 12029.2 9053 11837 9053" />
		<path d="M11837 9053C11837 9245.2 11681.2 9401 11489 9401C11296.8 9401 11141 9245.2 11141 9053" />
		<path d="M12533 9053C12533 8860.8 12377.2 8705 12185 8705C11992.8 8705 11837 8860.8 11837 9053" />
		<path d="M13229 10445C13036.8 10445 12881 10289.2 12881 10097C12881 9904.8 13036.8 9749 13229 9749" />
		<path d="M13229 11141C13421.2 11141 13577 10985.2 13577 10793C13577 10600.8 13421.2 10445 13229 10445" />
		<path d="M13229 10445C13229 10637.2 13073.2 10793 12881 10793C12688.8 10793 12533 10637.2 12533 10445" />
		<path d="M13925 10445C13925 10252.8 13769.2 10097 13577 10097C13384.8 10097 13229 10252.8 13229 10445" />
		<path d="M13229 9053C13036.8 9053 12881 8897.2 12881 8705C12881 8512.8 13036.8 8357 13229 8357" />
		<path d="M13229 9749C13421.2 9749 13577 9593.2 13577 9401C13577 9208.8 13421.2 9053 13229 9053" />
		<path d="M13229 9053C13229 9245.2 13073.2 9401 12881 9401C12688.8 9401 12533 9245.2 12533 9053" />
		<path d="M13925 9053C13925 8860.8 13769.2 8705 13577 8705C13384.8 8705 13229 8860.8 13229 9053" />
		<path d="M14621 7661C14428.8 7661 14273 7505.2 14273 7313C14273 7120.8 14428.8 6965 14621 6965" />
		<path d="M14621 8357C14813.2 8357 14969 8201.2 14969 8009C14969 7816.8 14813.2 7661 14621 7661" />
		<path d="M14621 7661C14621 7853.2 14465.2 8009 14273 8009C14080.8 8009 13925 7853.2 13925 7661" />
		<path d="M15317 7661C15317 7468.8 15161.2 7313 14969 7313C14776.8 7313 14621 7468.8 14621 7661" />
		<path d="M14621 6269C14428.8 6269 14273 6113.2 14273 5921C14273 5728.8 14428.8 5573 14621 5573" />
		<path d="M14621 6965C14813.2 6965 14969 6809.2 14969 6617C14969 6424.8 14813.2 6269 14621 6269" />
		<path d="M14621 6269C14621 6461.2 14465.2 6617 14273 6617C14080.8 6617 13925 6461.2 13925 6269" />
		<path d="M15317 6269C15317 6076.8 15161.2 5921 14969 5921C14776.8 5921 14621 6076.8 14621 6269" />
		<path d="M16013 7661C15820.8 7661 15665 7505.2 15665 7313C15665 7120.8 15820.8 6965 16013 6965" />
		<path d="M16013 8357C16205.2 8357 16361 8201.2 16361 8009C16361 7816.8 16205.2 7661 16013 7661" />
		<path d="M16013 7661C16013 7853.2 15857.2 8009 15665 8009C15472.8 8009 15317 7853.2 15317 7661" />
		<path d="M16709 7661C16709 7468.8 16553.2 7313 16361 7313C16168.8 7313 16013 7468.8 16013 7661" />
		<path d="M16013 6269C15820.8 6269 15665 6113.2 15665 5921C15665 5728.8 15820.8 5573 16013 5573" />
		<path d="M16013 6965C16205.2 6965 16361 6809.2 16361 6617C16361 6424.8 16205.2 6269 16013 6269" />
		<path d="M16013 6269C16013 6461.2 15857.2 6617 15665 6617C15472.8 6617 15317 6461.2 15317 6269" />
		<path d="M16709 6269C16709 6076.8 16553.2 5921 16361 5921C16168.8 5921 16013 6076.8 16013 6269" />
		<path d="M14621 10445C14428.8 10445 14273 10289.2 14273 10097C14273 9904.8 14428.8 9749 14621 9749" />
		<path d="M14621 11141C14813.2 11141 14969 10985.2 14969 10793C14969 10600.8 14813.2 10445 14621 10445" />
		<path d="M14621 10445C14621 10637.2 14465.2 10793 14273 10793C14080.8 10793 13925 10637.2 13925 10445" />
		<path d="M15317 10445C15317 10252.8 15161.2 10097 14969 10097C14776.8 10097 14621 10252.8 14621 10445" />
		<path d="M14621 9053C14428.8 9053 14273 8897.2 14273 8705C14273 8512.8 14428.8 8357 14621 8357" />
		<path d="M14621 9749C14813.2 9749 14969 9593.2 14969 9401C14969 9208.8 14813.2 9053 14621 9053" />
		<path d="M14621 9053C14621 9245.2 14465.2 9401 14273 9401C14080.8 9401 13925 9245.2 13925 9053" />
		<path d="M15317 9053C15317 8860.8 15161.2 8705 14969 8705C14776.8 8705 14621 8860.8 14621 9053" />
		<path d="M16013 10445C15820.8 10445 15665 10289.2 15665 10097C15665 9904.8 15820.8 9749 16013 9749" />
		<path d="M16013 11141C16205.2 11141 16361 10985.2 16361 10793C16361 10600.8 16205.2 10445 16013 10445" />
		<path d="M16013 10445C16013 10637.2 15857.2 10793 15665 10793C15472.8 10793 15317 10637.2 15317 10445" />
		<path d="M16709 10445C16709 10252.8 16553.2 10097 16361 10097C16168.8 10097 16013 10252.8 16013 10445" />
		<path d="M16013 9053C15820.8 9053 15665 8897.2 15665 8705C15665 8512.8 15820.8 8357 16013 8357" />
		<path d="M16013 9749C16205.2 9749 16361 9593.2 16361 9401C16361 9208.8 16205.2 9053 16013 9053" />
		<path d="M16013 9053C16013 9245.2 15857.2 9401 15665 9401C15472.8 9401 15317 9245.2 15317 9053" />
		<path d="M16709 9053C16709 8860.8 16553.2 8705 16361 8705C16168.8 8705 16013 8860.8 16013 9053" />
		<path d="M17405 7661C17212.8 7661 17057 7505.2 17057 7313C17057 7120.8 17212.8 6965 17405 6965" />
		<path d="M17405 8357C17597.2 8357 17753 8201.2 17753 8009C17753 7816.8 17597.2 7661 17405 7661" />
		<path d="M17405 7661C17405 7853.2 17249.2 8009 17057 8009C16864.8 8009 16709 7853.2 16709 7661" />
		<path d="M18101 7661C18101 7468.8 17945.2 7313 17753 7313C17560.8 7313 17405 7468.8 17405 7661" />
		<path d="M17405 6269C17212.8 6269 17057 6113.2 17057 5921C17057 5728.8 17212.8 5573 17405 5573" />
		<path d="M17405 6965C17597.2 6965 17753 6809.2 17753 6617C17753 6424.8 17597.2 6269 17405 6269" />
		<path d="M17405 6269C17405 6461.2 17249.2 6617 17057 6617C16864.8 6617 16709 6461.2 16709 6269" />
		<path d="M18101 6269C18101 6076.8 17945.2 5921 17753 5921C17560.8 5921 17405 6076.8 17405 6269" />
		<path d="M18797 7661C18604.8 7661 18449 7505.2 18449 7313C18449 7120.8 18604.8 6965 18797 6965" />
		<path d="M18797 8357C18989.2 8357 19145 8201.2 19145 8009C19145 7816.8 18989.2 7661 18797 7661" />
		<path d="M18797 7661C18797 7853.2 18641.2 8009 18449 8009C18256.8 8009 18101 7853.2 18101 7661" />
		<path d="M19493 7661C19493 7468.8 19337.2 7313 19145 7313C18952.8 7313 18797 7468.8 18797 7661" />
		<path d="M18797 6269C18604.8 6269 18449 6113.2 18449 5921C18449 5728.8 18604.8 5573 18797 5573" />
		<path d="M18797 6965C18989.2 6965 19145 6809.2 19145 6617C19145 6424.8 18989.2 6269 18797 6269" />
		<path d="M18797 6269C18797 6461.2 18641.2 6617 18449 6617C18256.8 6617 18101 6461.2 18101 6269" />
		<path d="M19493 6269C19493 6076.8 19337.2 5921 19145 5921C18952.8 5921 18797 6076.8 18797 6269" />
		<path d="M17405 10445C17212.8 10445 17057 10289.2 17057 10097C17057 9904.8 17212.8 9749 17405 9749" />
		<path d="M17405 11141C17597.2 11141 17753 10985.2 17753 10793C17753 10600.8 17597.2 10445 17405 10445" />
		<path d="M17405 10445C17405 10637.2 17249.2 10793 17057 10793C16864.8 10793 16709 10637.2 16709 10445" />
		<path d="M18101 10445C18101 10252.8 17945.2 10097 17753 10097C17560.8 10097 17405 10252.8 17405 10445" />
		<path d="M17405 9053C17212.8 9053 17057 8897.2 17057 8705C17057 8512.8 17212.8 8357 17405 8357" />
		<path d="M17405 9749C17597.2 9749 17753 9593.2 17753 9401C17753 9208.8 17597.2 9053 17405 9053" />
		<path d="M17405 9053C17405 9245.2 17249.2 9401 17057 9401C16864.8 9401 16709 9245.2 16709 9053" />
		<path d="M18101 9053C18101 8860.8 17945.2 8705 17753 8705C17560.8 8705 17405 8860.8 17405 9053" />
		<path d="M18797 10445C18604.8 10445 18449 10289.2 18449 10097C18449 9904.8 18604.8 9749 18797 9749" />
		<path d="M18797 11141C18989.2 11141 19145 10985.2 19145 10793C19145 10600.8 18989.2 10445 18797 10445" />
		<path d="M18797 10445C18797 10637.2 18641.2 10793 18449 10793C18256.8 10793 18101 10637.2 18101 10445" />
		<path d="M19493 10445C19493 10252.8 19337.2 10097 19145 10097C18952.8 10097 18797 10252.8 18797 10445" />
		<path d="M18797 9053C18604.8 9053 18449 8897.2 18449 8705C18449 8512.8 18604.8 8357 18797 8357" />
		<path d="M18797 9749C18989.2 9749 19145 9593.2 19145 9401C19145 9208.8 18989.2 9053 18797 9053" />
		<path d="M18797 9053C18797 9245.2 18641.2 9401 18449 9401C18256.8 9401 18101 9245.2 18101 9053" />
		<path d="M19493 9053C19493 8860.8 19337.2 8705 19145 8705C18952.8 8705 18797 8860.8 18797 9053" />
		<path d="M20189 7661C19996.8 7661 19841 7505.2 19841 7313C19841 7120.8 19996.8 6965 20189 6965" />
		<path d="M20189 8357C20381.2 8357 20537 8201.2 20537 8009C20537 7816.8 20381.2 7661 20189 7661" />
		<path d="M20189 7661C20189 7853.2 20033.2 8009 19841 8009C19648.8 8009 19493 7853.2 19493 7661" />
		<path d="M20885 7661C20885 7468.8 20729.2 7313 20537 7313C20344.8 7313 20189 7468.8 20189 7661" />
		<path d="M20189 6269C19996.8 6269 19841 6113.2 19841 5921C19841 5728.8 19996.8 5573 20189 5573" />
		<path d="M20189 6965C20381.2 6965 20537 6809.2 20537 6617C20537 6424.8 20381.2 6269 20189 6269" />
		<path d="M20189 6269C20189 6461.2 20033.2 6617 19841 6617C19648.8 6617 19493 6461.2 19493 6269" />
		<path d="M20885 6269C20885 6076.8 20729.2 5921 20537 5921C20344.8 5921 20189 6076.8 20189 6269" />
		<path d="M21581 7661C21388.8 7661 21233 7505.2 21233 7313C21233 7120.8 21388.8 6965 21581 6965" />
		<path d="M21581 8357C21773.2 8357 21929 8201.2 21929 8009C21929 7816.8 21773.2 7661 21581 7661" />
		<path d="M21581 7661C21581 7853.2 21425.2 8009 21233 8009C21040.8 8009 20885 7853.2 20885 7661" />
		<path d="M22277 7661C22277 7468.8 22121.2 7313 21929 7313C21736.8 7313 21581 7468.8 21581 7661" />
		<path d="M21581 6269C21388.8 6269 21233 6113.2 21233 5921C21233 5728.8 21388.8 5573 21581 5573" />
		<path d="M21581 6965C21773.2 6965 21929 6809.2 21929 6617C21929 6424.8 21773.2 6269 21581 6269" />
		<path d="M21581 6269C21581 6461.2 21425.2 6617 21233 6617C21040.8 6617 20885 6461.2 20885 6269" />
		<path d="M22277 6269C22277 6076.8 22121.2 5921 21929 5921C21736.8 5921 21581 6076.8 21581 6269" />
		<path d="M20189 10445C19996.8 10445 19841 10289.2 19841 10097C19841 9904.8 19996.8 9749 20189 9749" />
		<path d="M20189 11141C20381.2 11141 20537 10985.2 20537 10793C20537 10600.8 20381.2 10445 20189 10445" />
		<path d="M20189 10445C20189 10637.2 20033.2 10793 19841 10793C19648.8 10793 19493 10637.2 19493 10445" />
		<path d="M20885 10445C20885 10252.8 20729.2 10097 20537 10097C20344.8 10097 20189 10252.8 20189 10445" />
		<path d="M20189 9053C19996.8 9053 19841 8897.2 19841 8705C19841 8512.8 19996.8 8357 20189 8357" />
		<path d="M20189 9749C20381.2 9749 20537 9593.2 20537 9401C20537 9208.8 20381.2 9053 20189 9053" />
		<path d="M20189 9053C20189 9245.2 20033.2 9401 19841 9401C19648.8 9401 19493 9245.2 19493 9053" />
		<path d="M20885 9053C20885 8860.8 20729.2 8705 20537 8705C20344.8 8705 20189 8860.8 20189 9053" />
		<path d="M21581 10445C21388.8 10445 21233 10289.2 21233 10097C21233 9904.8 21388.8 9749 21581 9749" />
		<path d="M21581 11141C21773.2 11141 21929 10985.2 21929 10793C21929 10600.8 21773.2 10445 21581 10445" />
		<path d="M21581 10445C21581 10637.2 21425.2 10793 21233 10793C21040.8 10793 20885 10637.2 20885 10445" />
		<path d="M22277 10445C22277 10252.8 22121.2 10097 21929 10097C21736.8 10097 21581 10252.8 21581 10445" />
		<path d="M21581 9053C21388.8 9053 21233 8897.2 21233 8705C21233 8512.8 21388.8 8357 21581 8357" />
		<path d="M21581 9749C21773.2 9749 21929 9593.2 21929 9401C21929 9208.8 21773.2 9053 21581 9053" />
		<path d="M21581 9053C21581 9245.2 21425.2 9401 21233 9401C21040.8 9401 20885 9245.2 20885 9053" />
		<path d="M22277 9053C22277 8860.8 22121.2 8705 21929 8705C21736.8 8705 21581 8860.8 21581 9053" />
	</g>
</svg>